<svg width="657" height="700" viewBox="0 0 657 700" fill="none" xmlns="http://www.w3.org/2000/svg">
<rect width="657" height="700" fill="#F73A46"/>
<g clip-path="url(#clip0)">
<path opacity="0.1" d="M614 413.403C614.013 424.402 612.864 435.37 610.573 446.126C609.803 449.728 608.91 453.258 607.892 456.717C606.631 461.029 605.19 465.21 603.567 469.259C602.743 471.321 601.872 473.347 600.954 475.338C600.986 486.558 598.987 497.692 595.054 508.197C588.097 526.676 575.43 541.751 559.577 550.558C549.699 556.086 538.577 558.992 527.266 559H151.395C131.305 559 112.684 551.837 97.4181 539.631C92.9547 536.048 88.8073 532.086 85.0219 527.789C79.7563 521.796 75.1846 515.223 71.3944 508.197C62.6002 491.979 57.5341 472.887 57.5341 452.453C48.3473 433.793 43 411.424 43 387.352C43 357.012 51.513 329.342 65.4993 308.388C68.384 304.056 71.5775 299.939 75.0546 296.07C78.4134 292.325 82.0677 288.858 85.9818 285.702C89.0506 283.228 92.2907 280.975 95.6777 278.962C97.0788 278.135 98.4847 277.357 99.9148 276.633C101.169 275.984 102.439 275.38 103.725 274.819C105.267 274.138 106.828 273.514 108.408 272.946C109.989 272.379 111.548 271.881 113.087 271.453C115.36 270.816 117.666 270.302 119.995 269.912C121.934 269.576 123.873 269.328 125.813 269.168C127.354 269.041 128.909 268.969 130.476 268.949C130.762 268.949 131.039 268.949 131.325 268.949C133.05 268.949 134.767 269.032 136.468 269.163C136.648 268.745 136.842 268.327 137.021 267.908C137.7 266.411 138.403 264.923 139.11 263.454C139.112 263.441 139.112 263.428 139.11 263.415C139.232 263.162 139.353 262.929 139.479 262.661C140.051 261.465 140.647 260.278 141.258 259.102C141.539 258.557 141.816 258.017 142.102 257.477C142.165 257.351 142.228 257.229 142.3 257.103C142.591 256.544 142.887 255.989 143.188 255.435C144.684 252.67 146.24 249.946 147.856 247.265C147.997 247.037 148.128 246.808 148.268 246.584C148.52 246.171 148.753 245.758 149.034 245.349C149.703 244.26 150.392 243.175 151.085 242.101C151.57 241.342 152.054 240.583 152.578 239.835C153.838 237.938 155.131 236.066 156.456 234.218C157.781 232.37 159.158 230.522 160.587 228.674C160.781 228.421 160.975 228.188 161.178 227.92L163.248 225.309L163.534 224.954L164.286 224.035C165.396 222.678 166.535 221.336 167.679 220.008C173.441 213.347 179.644 207.084 186.247 201.262C186.504 201.023 186.766 200.775 187.023 200.571C188.254 199.496 189.505 198.436 190.756 197.396C197.573 191.726 204.766 186.527 212.285 181.834C212.799 181.503 213.323 181.182 213.851 180.862C220.493 176.791 227.372 173.121 234.45 169.871C238.328 168.082 242.247 166.425 246.206 164.901C248.834 163.9 251.471 162.956 254.142 162.061C258.273 160.693 262.455 159.453 266.689 158.341C279.107 155.106 291.811 153.099 304.619 152.35C308.497 152.117 312.419 152 316.385 152C335.593 151.982 354.701 154.782 373.101 160.311C373.27 160.632 373.523 160.901 373.833 161.088C374.143 161.275 374.499 161.373 374.861 161.371H376.495C377.202 161.595 377.905 161.828 378.613 162.061C382.566 163.378 386.462 164.819 390.302 166.385L391.271 166.783C409.608 174.351 426.698 184.657 441.961 197.352C443.096 198.289 444.214 199.24 445.316 200.206C446.654 199.211 448.015 198.26 449.398 197.352C454.66 193.862 460.342 191.054 466.308 188.997C478.523 184.779 491.692 184.182 504.238 187.276C520.357 191.239 534.95 201.072 546.735 215.053C551.594 220.863 555.864 227.144 559.48 233.805C559.747 234.291 560.013 234.777 560.27 235.263C563.454 241.293 566.167 247.56 568.386 254.01C568.468 254.244 568.551 254.496 568.623 254.71C570.702 260.837 572.37 267.097 573.617 273.447C573.675 273.768 573.743 274.094 573.801 274.42C574.976 280.614 575.773 286.875 576.186 293.167C576.186 293.395 576.186 293.624 576.225 293.852C576.429 297.114 576.532 300.411 576.535 303.744C576.535 306.726 576.453 309.68 576.288 312.604C576.288 312.93 576.249 313.26 576.225 313.576C576.181 314.427 576.118 315.278 576.055 316.125C579.795 319.626 583.26 323.41 586.42 327.446C587.832 329.238 589.2 331.094 590.521 333.014C594.59 338.936 598.127 345.21 601.09 351.76C609.288 369.729 614 390.824 614 413.403Z" fill="#FF6363"/>
<path opacity="0.1" d="M563.097 540.21C563.097 547.431 540.835 554.02 504.252 559H161.018C124.44 554.02 102.179 547.431 102.179 540.21C102.179 534.71 115.094 529.574 137.423 525.236L138.053 525.115C144.356 523.904 151.4 522.756 159.098 521.682L159.685 521.599C165.793 520.753 172.291 519.954 179.179 519.202L179.828 519.134C182.485 518.842 185.196 518.56 187.963 518.287L189.03 518.185C209.173 516.24 232.07 514.664 256.901 513.609H256.93C260.407 513.463 263.922 513.327 267.474 513.201C271.424 513.055 275.421 512.925 279.468 512.812C282.556 512.719 285.683 512.641 288.82 512.569H288.892C303.043 512.233 317.665 512.058 332.616 512.058C369.586 512.058 404.53 513.123 435.494 515.015H435.581C440.342 515.306 445.015 515.613 449.572 515.943L453.451 516.23C458.593 516.619 463.602 517.031 468.479 517.466C525.845 522.586 563.097 530.868 563.097 540.21Z" fill="#FF6363"/>
<path opacity="0.03" d="M196.636 203.217V217.966C196.637 218.228 196.586 218.488 196.486 218.73C196.387 218.973 196.24 219.193 196.056 219.379C195.871 219.565 195.652 219.712 195.41 219.812C195.169 219.913 194.91 219.965 194.648 219.965H167.733C173.494 213.304 179.697 207.04 186.3 201.218H194.653C194.914 201.219 195.173 201.271 195.414 201.372C195.654 201.472 195.873 201.62 196.057 201.805C196.241 201.991 196.387 202.211 196.487 202.453C196.586 202.695 196.637 202.955 196.636 203.217V203.217Z" stroke="white" stroke-miterlimit="10"/>
<path d="M526.005 203.187V424.753C526.005 426.301 525.392 427.785 524.301 428.88C523.21 429.974 521.73 430.589 520.188 430.589H125.813C124.27 430.589 122.79 429.974 121.699 428.88C120.608 427.785 119.995 426.301 119.995 424.753V269.912C121.934 269.576 123.873 269.328 125.813 269.168C127.354 269.042 128.909 268.969 130.476 268.949C130.762 268.949 131.039 268.949 131.325 268.949C133.05 268.949 134.767 269.032 136.468 269.163C136.648 268.745 136.842 268.327 137.021 267.908C137.7 266.411 138.403 264.923 139.11 263.454C139.112 263.441 139.112 263.428 139.11 263.415C139.232 263.162 139.353 262.929 139.479 262.661C140.051 261.465 140.647 260.279 141.258 259.102C141.539 258.557 141.816 258.017 142.102 257.477C142.165 257.351 142.228 257.229 142.3 257.103C142.591 256.544 142.887 255.989 143.188 255.435C144.684 252.67 146.24 249.946 147.856 247.265C147.997 247.037 148.128 246.808 148.268 246.584C148.52 246.171 148.753 245.758 149.034 245.349C149.703 244.26 150.392 243.176 151.085 242.101C151.57 241.342 152.054 240.584 152.578 239.835C153.838 237.938 155.131 236.066 156.456 234.218C157.781 232.37 159.158 230.522 160.587 228.674C160.781 228.421 160.975 228.188 161.178 227.92L163.248 225.309L163.534 224.954L164.286 224.035C165.396 222.678 166.535 221.336 167.679 220.008C173.441 213.347 179.644 207.084 186.247 201.262C186.504 201.023 186.766 200.775 187.023 200.571C188.254 199.496 189.505 198.436 190.756 197.396H441.976C443.11 198.333 444.228 199.284 445.331 200.25C446.669 199.255 448.029 198.303 449.413 197.396H520.192C521.727 197.397 523.199 198.006 524.288 199.091C525.376 200.176 525.994 201.648 526.005 203.187Z" fill="white"/>
<path d="M502.749 239.805V245.32H149.068C149.737 244.231 150.426 243.146 151.124 242.072C151.608 241.313 152.093 240.554 152.612 239.805H502.749Z" fill="#3F3D56"/>
<path d="M426.889 422.871V212.865H421.391V422.871H426.889Z" fill="#3F3D56"/>
<path d="M325.746 422.871V212.865H320.249V422.871H325.746Z" fill="#3F3D56"/>
<path d="M224.604 422.871V212.865H219.106V422.871H224.604Z" fill="#3F3D56"/>
<path d="M161.484 257.074V278.792H139.125V263.425C139.125 263.425 139.125 263.401 139.125 263.386C139.246 263.133 139.367 262.9 139.493 262.632C140.07 261.436 140.662 260.249 141.277 259.073C141.554 258.528 141.83 257.988 142.116 257.448C142.179 257.322 142.247 257.2 142.315 257.074H161.484Z" fill="url(#paint0_linear)"/>
<path d="M161.101 257.448V278.417H139.513V262.618C140.09 261.421 140.681 260.235 141.297 259.058C141.573 258.513 141.85 257.973 142.136 257.434L161.101 257.448Z" fill="#7CFCFF"/>
<path d="M252.048 250.455H229.684V272.173H252.048V250.455Z" fill="url(#paint1_linear)"/>
<path d="M251.665 250.83H230.072V271.799H251.665V250.83Z" fill="#7CFCFF"/>
<path d="M353.055 292.622H330.691V314.34H353.055V292.622Z" fill="url(#paint2_linear)"/>
<path d="M352.672 292.996H331.079V313.965H352.672V292.996Z" fill="#7CFCFF"/>
<path d="M456.122 307.007H433.759V328.725H456.122V307.007Z" fill="url(#paint3_linear)"/>
<path d="M455.734 307.381H434.141V328.35H455.734V307.381Z" fill="#7CFCFF"/>
<path d="M483.736 321.065H461.372V342.783H483.736V321.065Z" fill="url(#paint4_linear)"/>
<path d="M483.353 321.44H461.76V342.409H483.353V321.44Z" fill="#7CFCFF"/>
<path d="M518.37 283.499H496.006V305.217H518.37V283.499Z" fill="url(#paint5_linear)"/>
<path d="M517.982 283.874H496.389V304.843H517.982V283.874Z" fill="#7CFCFF"/>
<path d="M511.359 313.97H488.996V335.688H511.359V313.97Z" fill="url(#paint6_linear)"/>
<path d="M510.971 314.345H489.379V335.314H510.971V314.345Z" fill="#7CFCFF"/>
<path d="M282.556 250.455H260.193V272.173H282.556V250.455Z" fill="url(#paint7_linear)"/>
<path d="M282.173 250.83H260.58V271.799H282.173V250.83Z" fill="#7CFCFF"/>
<path d="M178.064 303.107H155.7V324.825H178.064V303.107Z" fill="url(#paint8_linear)"/>
<path d="M177.676 303.481H156.083V324.45H177.676V303.481Z" fill="#FFFFA5"/>
<path d="M268.187 281.763H245.823V303.481H268.187V281.763Z" fill="url(#paint9_linear)"/>
<path d="M267.804 282.137H246.211V303.107H267.804V282.137Z" fill="#FFFFA5"/>
<path d="M384.751 268.784H362.387V290.502H384.751V268.784Z" fill="url(#paint10_linear)"/>
<path d="M384.363 269.158H362.77V290.127H384.363V269.158Z" fill="#FFFFA5"/>
<path d="M502.745 253.553H480.381V275.271H502.745V253.553Z" fill="url(#paint11_linear)"/>
<path d="M502.362 253.928H480.769V274.897H502.362V253.928Z" fill="#FFFFA5"/>
<path d="M414.255 250.455H391.892V272.173H414.255V250.455Z" fill="url(#paint12_linear)"/>
<path d="M413.867 250.83H392.275V271.799H413.867V250.83Z" fill="#FFFFA5"/>
<path d="M412.985 292.622H390.621V314.34H412.985V292.622Z" fill="url(#paint13_linear)"/>
<path d="M412.602 292.996H391.009V313.965H412.602V292.996Z" fill="#FFFFA5"/>
<path d="M312.584 260.945H290.221V282.663H312.584V260.945Z" fill="url(#paint14_linear)"/>
<path d="M312.201 261.314H290.609V282.283H312.201V261.314Z" fill="#FFFFA5"/>
<path d="M193.761 267.933H171.398V289.651H193.761V267.933Z" fill="url(#paint15_linear)"/>
<path d="M193.378 268.307H171.786V289.276H193.378V268.307Z" fill="#FF69B4"/>
<path d="M204.945 292.622H182.582V314.34H204.945V292.622Z" fill="url(#paint16_linear)"/>
<path d="M204.558 292.996H182.965V313.965H204.558V292.996Z" fill="#FF69B4"/>
<path d="M297.706 296.148H275.342V317.866H297.706V296.148Z" fill="url(#paint17_linear)"/>
<path d="M297.318 296.522H275.725V317.491H297.318V296.522Z" fill="#FF69B4"/>
<path d="M461.372 253.553H439.009V275.271H461.372V253.553Z" fill="url(#paint18_linear)"/>
<path d="M460.989 253.928H439.397V274.897H460.989V253.928Z" fill="#FF69B4"/>
<path d="M481.162 283.499H458.798V305.217H481.162V283.499Z" fill="url(#paint19_linear)"/>
<path d="M480.779 283.874H459.186V304.843H480.779V283.874Z" fill="#FF69B4"/>
<path d="M355.009 250.455H332.645V272.173H355.009V250.455Z" fill="url(#paint20_linear)"/>
<path d="M354.625 250.83H333.033V271.799H354.625V250.83Z" fill="#FF69B4"/>
<path d="M382.22 313.97H359.856V335.688H382.22V313.97Z" fill="url(#paint21_linear)"/>
<path d="M381.832 314.345H360.24V335.314H381.832V314.345Z" fill="#FF69B4"/>
<path d="M444.264 300.743C444.201 303.209 443.367 305.606 443.236 308.067C450.508 308.427 457.63 304.901 464.8 305.981C462.798 304.682 461.726 302.333 461.096 300.023C460.29 297.044 460.05 293.94 460.388 290.871C460.407 290.707 460.436 290.545 460.476 290.385C460.742 289.179 461.445 287.467 461.246 286.519C461.004 285.264 459.821 285.512 458.759 285.585C455.518 285.834 452.291 286.251 449.093 286.835C448.259 286.981 440.139 289.014 440.017 288.805C441.355 291.124 442.718 293.536 443.532 296.065C444.036 297.572 444.284 299.154 444.264 300.743Z" fill="#EE8E9E"/>
<path d="M372.616 293.118C373.239 293.971 373.985 294.725 374.832 295.355C375.38 295.807 375.942 296.269 376.533 296.683C377.585 297.491 378.838 297.995 380.155 298.141C381.881 298.258 385.546 297.242 386.617 295.759C387.069 295.014 387.283 294.149 387.233 293.279C387.215 292.098 387.015 290.926 386.641 289.806C385.968 287.986 385.025 286.278 383.844 284.739C382.598 282.998 381.212 281.286 379.355 280.231C378.736 279.9 378.099 279.606 377.445 279.351L374.051 277.96C373.858 277.868 373.649 277.814 373.435 277.8C372.529 277.8 372.364 279.195 372.878 279.944C373.906 281.457 376.218 281.889 376.868 283.592C376.319 283.604 375.788 283.792 375.352 284.128C374.916 284.464 374.598 284.93 374.444 285.459C374.418 285.74 374.305 286.006 374.119 286.218C373.823 286.456 373.358 286.32 373.019 286.5C372.422 286.821 372.684 287.715 372.621 288.396C372.563 288.999 372.185 289.519 372 290.098C371.875 290.616 371.865 291.155 371.972 291.677C372.078 292.199 372.298 292.691 372.616 293.118Z" fill="#EE8E9E"/>
<path d="M472.484 540.545C471.926 539.986 471.029 540.083 470.234 540.205C466.053 540.867 461.828 541.21 457.596 541.231C457.067 538.634 458.604 536.11 459.099 533.508C459.164 532.84 459.327 532.184 459.583 531.563C460.175 530.416 461.523 529.89 462.783 529.618C465.062 529.132 468.601 528.286 469.895 530.591C471.441 533.367 471.931 537.462 472.484 540.545Z" fill="#65617D"/>
<path d="M426.181 530.741C427.897 531.918 430.03 532.283 432.096 532.55C434.161 532.818 436.284 533.012 438.156 533.936C439.77 534.734 441.127 536.047 442.839 536.621C444.39 537.141 446.087 537 447.687 536.698C449.626 536.339 451.652 535.633 452.69 533.97C453.616 532.511 453.514 530.62 453.388 528.879C453.237 526.934 453.097 524.94 452.951 522.97C452.956 522.47 452.831 521.978 452.588 521.541C451.196 519.513 447.822 522.392 446.019 522.387C443.154 522.387 440.08 520.831 438.02 518.924C437.841 518.729 437.631 518.565 437.399 518.438C436.58 518.068 435.765 518.749 435.038 519.343C434.961 519.411 434.878 519.474 434.796 519.537C433.123 520.87 430.884 521.137 428.818 521.677C426.753 522.217 424.538 523.301 423.898 525.343C423.856 525.472 423.824 525.604 423.801 525.737C423.432 527.649 424.576 529.637 426.181 530.741Z" fill="#3F3D56"/>
<path opacity="0.05" d="M426.181 530.741C427.897 531.918 430.03 532.283 432.096 532.55C434.161 532.818 436.284 533.012 438.156 533.936C439.77 534.734 441.127 536.047 442.839 536.621C444.39 537.141 446.087 537 447.687 536.698C449.626 536.339 451.652 535.633 452.69 533.97C453.616 532.511 453.514 530.62 453.388 528.879C453.237 526.934 453.097 524.94 452.951 522.97C452.956 522.47 452.831 521.978 452.588 521.541C451.196 519.513 447.822 522.392 446.019 522.387C443.154 522.387 440.08 520.831 438.02 518.924C437.841 518.729 437.631 518.565 437.399 518.438C436.58 518.068 435.765 518.749 435.038 519.343C434.961 519.411 434.878 519.474 434.796 519.537C433.123 520.87 430.884 521.137 428.818 521.677C426.753 522.217 424.538 523.301 423.898 525.343C423.856 525.472 423.824 525.604 423.801 525.737C423.432 527.649 424.576 529.637 426.181 530.741Z" fill="black"/>
<path d="M426.181 531.403C427.897 532.58 430.031 532.944 432.096 533.212C434.161 533.479 436.284 533.674 438.156 534.598C439.77 535.4 441.127 536.708 442.839 537.282C444.39 537.802 446.087 537.661 447.687 537.36C449.733 536.922 451.528 535.701 452.69 533.956C453.616 532.497 453.514 530.605 453.388 528.864C453.238 526.919 453.097 524.925 452.952 522.956C452.956 522.456 452.831 521.963 452.588 521.526C451.197 519.498 447.822 522.377 446.019 522.372C443.154 522.372 440.08 520.816 438.02 518.91C437.841 518.715 437.631 518.551 437.399 518.424C436.58 518.054 435.766 518.735 435.038 519.328C435.517 520.801 436.194 522.201 437.05 523.491C438.505 525.626 440.793 527.259 443.353 527.449C444.633 527.542 445.946 527.289 447.183 527.619C448.419 527.95 449.573 529.219 449.122 530.425C448.671 531.631 447.183 531.884 445.932 531.928C444.182 532.02 442.388 532.108 440.73 531.563C439.717 531.223 438.791 530.664 437.821 530.25C433.628 528.504 428.329 529.482 424.863 526.535C424.536 526.233 424.182 525.961 423.806 525.723C422.899 527.648 424.577 530.299 426.181 531.403Z" fill="#E8EAF2"/>
<path opacity="0.05" d="M426.181 531.403C427.897 532.58 430.031 532.944 432.096 533.212C434.161 533.479 436.284 533.674 438.156 534.598C439.77 535.4 441.127 536.708 442.839 537.282C444.39 537.802 446.087 537.661 447.687 537.36C449.733 536.922 451.528 535.701 452.69 533.956C453.616 532.497 453.514 530.605 453.388 528.864C453.238 526.919 453.097 524.925 452.952 522.956C452.956 522.456 452.831 521.963 452.588 521.526C451.197 519.498 447.822 522.377 446.019 522.372C443.154 522.372 440.08 520.816 438.02 518.91C437.841 518.715 437.631 518.551 437.399 518.424C436.58 518.054 435.766 518.735 435.038 519.328C435.517 520.801 436.194 522.201 437.05 523.491C438.505 525.626 440.793 527.259 443.353 527.449C444.633 527.542 445.946 527.289 447.183 527.619C448.419 527.95 449.573 529.219 449.122 530.425C448.671 531.631 447.183 531.884 445.932 531.928C444.182 532.02 442.388 532.108 440.73 531.563C439.717 531.223 438.791 530.664 437.821 530.25C433.628 528.504 428.329 529.482 424.863 526.535C424.536 526.233 424.182 525.961 423.806 525.723C422.899 527.648 424.577 530.299 426.181 531.403Z" fill="black"/>
<path d="M471.703 402.637C473.041 409.22 471.772 416.067 468.164 421.729C467.195 423.256 466.031 424.69 465.294 426.348C464.81 427.534 464.434 428.761 464.17 430.015L460.989 443.237C460.126 446.807 459.263 450.444 459.535 454.106C459.714 456.659 460.354 459.528 458.788 461.546C458.402 461.93 458.075 462.369 457.819 462.85C457.668 463.414 457.668 464.007 457.819 464.571C459.428 474.171 460.626 484.203 457.717 493.491C455.08 501.909 454.925 511.236 452.685 519.751C452.408 520.811 452.089 521.925 451.289 522.669C450.688 523.167 449.97 523.502 449.204 523.641C445.898 524.434 442.417 523.505 439.324 522.076C437.157 521.069 434.825 519.304 435.009 516.916C435.101 515.778 435.761 514.781 436.212 513.736C437.089 511.683 437.181 509.393 437.399 507.171C437.996 501.588 439.712 496.205 441.006 490.744C442.301 485.282 443.183 479.583 442.087 474.078C439.854 462.698 436.273 451.626 431.422 441.098C431.212 440.544 430.881 440.046 430.452 439.639C430.016 439.279 429.439 439.114 429.066 438.666C428.692 438.219 428.581 437.538 428.435 436.94C427.951 435.199 426.52 433.915 425.561 432.383C423.137 428.522 423.903 423.572 423.995 419.01C424.082 414.57 423.447 410.091 424.169 405.715C424.892 401.338 427.393 396.864 431.601 395.503C433.686 394.827 435.94 394.977 438.122 395.196C449.631 396.349 460.849 398.474 471.703 402.637Z" fill="#303D5C"/>
<path opacity="0.05" d="M471.703 402.637C473.041 409.22 471.772 416.067 468.164 421.729C467.195 423.256 466.031 424.69 465.294 426.348C464.81 427.534 464.434 428.761 464.17 430.015L460.989 443.237C460.126 446.807 459.263 450.444 459.535 454.106C459.714 456.659 460.354 459.528 458.788 461.546C458.402 461.93 458.075 462.369 457.819 462.85C457.668 463.414 457.668 464.007 457.819 464.571C459.428 474.171 460.626 484.203 457.717 493.491C455.08 501.909 454.925 511.236 452.685 519.751C452.408 520.811 452.089 521.925 451.289 522.669C450.688 523.167 449.97 523.502 449.204 523.641C445.898 524.434 442.417 523.505 439.324 522.076C437.157 521.069 434.825 519.304 435.009 516.916C435.101 515.778 435.761 514.781 436.212 513.736C437.089 511.683 437.181 509.393 437.399 507.171C437.996 501.588 439.712 496.205 441.006 490.744C442.301 485.282 443.183 479.583 442.087 474.078C439.854 462.698 436.273 451.626 431.422 441.098C431.212 440.544 430.881 440.046 430.452 439.639C430.016 439.279 429.439 439.114 429.066 438.666C428.692 438.219 428.581 437.538 428.435 436.94C427.951 435.199 426.52 433.915 425.561 432.383C423.137 428.522 423.903 423.572 423.995 419.01C424.082 414.57 423.447 410.091 424.169 405.715C424.892 401.338 427.393 396.864 431.601 395.503C433.686 394.827 435.94 394.977 438.122 395.196C449.631 396.349 460.849 398.474 471.703 402.637Z" fill="black"/>
<path d="M424.64 430.467C424.676 432.19 424.871 433.906 425.221 435.593C427.257 447.053 429.428 458.488 431.732 469.896C431.936 470.869 432.134 471.875 432.401 472.848C433.261 476.022 434.763 478.985 436.813 481.553C446.412 493.554 447.241 510.988 452.452 525.465C452.801 526.438 453.155 527.41 453.528 528.383C454.467 530.838 455.54 533.239 456.743 535.575C456.881 535.916 457.109 536.214 457.402 536.436C457.726 536.599 458.088 536.669 458.449 536.64C463.142 536.672 467.778 535.618 471.999 533.562C472.606 533.342 473.12 532.92 473.454 532.366C473.613 531.924 473.664 531.45 473.604 530.985C473.458 528.115 473.284 525.149 471.922 522.62C471.014 521.111 469.89 519.745 468.586 518.565C468.179 509.558 467.292 500.533 465.319 491.736C464.305 487.237 463.05 482.691 460.471 478.888C458.532 476.082 455.797 473.315 456.137 469.925C456.287 468.466 456.907 466.589 455.7 465.714C455.172 465.33 454.391 465.281 454.037 464.741C453.895 464.485 453.815 464.198 453.805 463.905C453.556 461.581 453.7 459.232 454.231 456.956C454.58 455.448 455.104 453.97 455.264 452.428C455.424 450.887 455.153 449.209 454.13 448.052C454.067 444.959 454.13 441.73 454.086 438.666C454.057 436.901 454.023 435.111 454.517 433.424C454.755 432.612 455.109 431.839 455.288 430.992C455.933 428.026 454.319 424.466 456.258 422.113C457.058 421.14 458.289 420.654 459.331 419.944C461.421 418.543 462.788 416.258 463.549 413.86C464.31 411.463 464.519 408.924 464.747 406.41C464.802 405.875 464.802 405.336 464.747 404.801C464.714 404.524 464.643 404.254 464.533 403.998C463.937 402.656 462.337 402.136 460.912 401.79C451.862 399.613 442.585 398.525 433.279 398.552C429.837 396.198 427.897 397.039 426.438 399.524C425.635 401.046 424.986 402.644 424.499 404.295C423.83 406.313 423.791 417.624 423.141 419.652C422.235 422.307 424.673 427.695 424.64 430.467Z" fill="#303D5C"/>
<path d="M486.882 327.557C487.139 329.337 486.286 331.088 486.189 332.882C486.106 334.448 486.606 335.98 486.892 337.527C488.002 343.557 485.869 349.66 483.692 355.388C483.282 356.312 483.026 357.298 482.936 358.306C482.878 360.178 483.949 361.89 484.245 363.738C484.86 367.628 482.01 371.271 481.947 375.205C481.947 377.014 482.49 378.857 482.039 380.607C481.738 381.779 481.011 382.781 480.492 383.875C479.576 385.821 479.334 388.004 478.456 389.954C476.881 393.485 473.487 395.79 470.263 397.905C468.426 397.292 466.438 396.563 465.415 394.905C464.973 394.088 464.689 393.196 464.577 392.274C463.879 388.252 463.903 384.148 463.927 380.068C463.877 376.57 464.068 373.074 464.499 369.603C465.149 365.168 466.584 360.893 467.612 356.531C468.911 351.031 469.551 345.346 471.597 340.07C473.371 335.431 476.139 331.268 479.053 327.285C480.163 325.763 481.04 323.589 483.198 323.939C484.106 324.094 484.946 324.523 485.605 325.17C486.263 325.816 486.709 326.649 486.882 327.557Z" fill="#6C63FF"/>
<path opacity="0.05" d="M486.882 327.557C487.139 329.337 486.286 331.088 486.189 332.882C486.106 334.448 486.606 335.98 486.892 337.527C488.002 343.557 485.869 349.66 483.692 355.388C483.282 356.312 483.026 357.298 482.936 358.306C482.878 360.178 483.949 361.89 484.245 363.738C484.86 367.628 482.01 371.271 481.947 375.205C481.947 377.014 482.49 378.857 482.039 380.607C481.738 381.779 481.011 382.781 480.492 383.875C479.576 385.821 479.334 388.004 478.456 389.954C476.881 393.485 473.487 395.79 470.263 397.905C468.426 397.292 466.438 396.563 465.415 394.905C464.973 394.088 464.689 393.196 464.577 392.274C463.879 388.252 463.903 384.148 463.927 380.068C463.877 376.57 464.068 373.074 464.499 369.603C465.149 365.168 466.584 360.893 467.612 356.531C468.911 351.031 469.551 345.346 471.597 340.07C473.371 335.431 476.139 331.268 479.053 327.285C480.163 325.763 481.04 323.589 483.198 323.939C484.106 324.094 484.946 324.523 485.605 325.17C486.263 325.816 486.709 326.649 486.882 327.557Z" fill="black"/>
<path opacity="0.1" d="M440.003 288.785C441.341 291.105 442.703 293.517 443.517 296.046C444.823 296.368 446.163 296.532 447.507 296.532C452.728 296.532 456.427 293.551 459.496 289.787C459.763 288.576 461.435 287.453 461.232 286.5C460.989 285.245 459.806 285.493 458.745 285.566C455.503 285.815 452.277 286.232 449.078 286.816C448.244 286.962 440.138 288.994 440.003 288.785Z" fill="black"/>
<path d="M447.522 296.075C456.762 296.075 464.252 288.561 464.252 279.293C464.252 270.024 456.762 262.511 447.522 262.511C438.282 262.511 430.792 270.024 430.792 279.293C430.792 288.561 438.282 296.075 447.522 296.075Z" fill="#EE8E9E"/>
<path opacity="0.1" d="M426.38 399.539C429.289 399.369 432.197 399.485 435.106 399.602C436.923 399.62 438.734 399.807 440.516 400.161C442.713 400.648 444.768 401.664 446.935 402.291C450.406 403.308 454.071 403.351 457.664 403.706C460.024 403.938 462.37 404.306 464.688 404.81C464.656 404.534 464.584 404.264 464.475 404.008C463.879 402.666 462.279 402.145 460.854 401.8C451.804 399.622 442.527 398.535 433.22 398.561C429.778 396.208 427.839 397.049 426.38 399.539Z" fill="black"/>
<path d="M437.782 306.768C438.514 307.615 439.494 308.548 440.575 308.276C440.965 308.14 441.332 307.943 441.661 307.692C443.6 306.443 445.956 306.151 448.225 305.81C452.798 305.119 457.317 304.1 461.746 302.761C463.031 302.291 464.379 302.016 465.745 301.944C468.581 301.944 471.078 303.851 472.872 306.068C474.665 308.286 475.906 310.878 477.652 313.119C478.893 314.719 480.371 316.13 481.53 317.788C484.439 321.975 485.089 327.441 484.332 332.503C483.576 337.565 481.559 342.331 479.562 347.043C478.418 349.742 477.264 352.456 475.683 354.916C476.357 358.763 476.003 363.159 474.181 366.588C473.584 367.711 472.857 368.805 472.663 370.065C472.571 370.914 472.606 371.773 472.765 372.613L473.618 378.687C473.875 380.539 474.137 382.387 474.472 384.226C475.087 387.591 475.926 391.243 474.37 394.287C472.508 397.929 474.462 402.603 473.972 406.668C468.738 404.638 463.253 403.329 457.669 402.778C454.071 402.423 450.397 402.379 446.94 401.367C444.773 400.735 442.722 399.733 440.521 399.228C438.737 398.877 436.924 398.692 435.106 398.673C431.097 398.513 427.059 398.352 423.093 398.946C422.768 398.994 422.38 399.019 422.186 398.756C422.099 398.609 422.057 398.44 422.065 398.27C422.004 396.778 422.36 395.299 423.093 394C423.578 393.105 424.3 392.225 424.281 391.199C424.245 390.719 424.126 390.248 423.932 389.808L422.177 385.101C420.688 381.133 421.396 376.518 420.625 372.35C420.024 369.09 419.638 365.794 419.472 362.483C419.326 359.653 419.418 356.584 421.12 354.323C421.618 353.779 422.049 353.176 422.405 352.529C422.65 351.842 422.754 351.112 422.71 350.384C422.749 344.724 422.587 339.065 422.225 333.408C423.714 330.733 425.26 327.995 426.744 325.321C428.469 322.208 430.224 319.033 430.922 315.541C431.407 313.226 431.368 310.848 431.698 308.514C431.731 307.92 431.936 307.348 432.29 306.87C432.857 306.229 433.812 306.136 434.67 306.16C435.732 306.203 436.782 306.408 437.782 306.768Z" fill="#6C63FF"/>
<path opacity="0.1" d="M376.528 296.683C377.581 297.491 378.833 297.995 380.15 298.141C381.876 298.258 385.541 297.242 386.612 295.759C387.064 295.014 387.279 294.149 387.228 293.279C386.995 293.202 386.754 293.155 386.51 293.138C384.634 293.026 382.719 292.914 380.896 293.366C379.074 293.818 377.309 294.927 376.533 296.649L376.528 296.683Z" fill="black"/>
<path d="M432.197 332.985C431.175 334.254 430.118 335.567 428.673 336.316C427.01 337.181 425.052 337.201 423.18 337.162C415.469 336.997 407.788 336.15 400.225 334.633C399.364 334.485 398.519 334.257 397.699 333.952C396.791 333.518 395.934 332.983 395.145 332.357C392.658 330.563 390.132 328.734 388.236 326.313C385.986 323.39 384.572 319.909 384.145 316.241C382.341 314.578 381.386 312.21 380.484 309.92C380.041 308.949 379.76 307.913 379.651 306.851C379.602 305.767 380.32 304.629 380.135 303.559C379.789 301.717 378.858 300.037 377.484 298.769C377.19 298.561 376.968 298.267 376.848 297.927C376.813 297.644 376.867 297.356 377.004 297.106C377.77 295.384 379.534 294.275 381.367 293.823C383.199 293.371 385.105 293.488 386.981 293.599C387.659 293.643 388.154 293.959 388.818 294.086L390.127 297.543C390.304 298.121 390.596 298.657 390.985 299.119C391.277 299.383 391.586 299.627 391.911 299.848C392.574 300.415 393.089 301.136 393.41 301.948C393.731 302.76 393.849 303.639 393.753 304.507C394.936 304.967 395.899 305.862 396.448 307.009C396.996 308.156 397.089 309.47 396.706 310.683C397.69 310.895 398.603 311.357 399.359 312.025C400.114 312.692 400.686 313.543 401.02 314.496C401.113 314.93 401.306 315.336 401.583 315.682C402.012 316.018 402.546 316.19 403.09 316.168C404.545 316.261 405.859 317.428 407.201 316.796C408.717 316.083 410.411 315.844 412.064 316.11C412.405 316.192 412.756 316.223 413.106 316.202C413.405 316.15 413.693 316.05 413.959 315.906C414.564 315.554 415.218 315.295 415.899 315.137C416.241 315.066 416.597 315.096 416.923 315.223C417.249 315.349 417.531 315.568 417.736 315.852C418.221 315.337 418.487 314.676 418.914 314.126C419.103 313.831 419.37 313.595 419.685 313.444C420 313.293 420.351 313.233 420.698 313.27C420.252 312.871 420.698 312.079 421.285 311.933C421.871 311.787 422.472 312.001 423.069 312.001C424.615 312.001 425.803 310.581 427.306 310.211C428.688 309.876 430.53 310.279 431.238 309.039C431.49 308.602 431.538 308.008 431.965 307.741C432.253 307.597 432.582 307.557 432.896 307.629C433.878 307.761 434.832 308.052 435.722 308.49C437.176 314.175 436.41 320.078 435.305 325.841C434.777 328.579 433.943 330.796 432.197 332.985Z" fill="#6C63FF"/>
<path opacity="0.1" d="M432.246 353.355L439.45 367.944C438.669 366.597 437.026 366.072 435.732 365.211C434.083 364.02 432.842 362.347 432.178 360.421C431.513 358.5 431.048 356.515 430.792 354.498C430.646 353.574 430.341 352.276 430.792 351.439C431.63 351.61 431.902 352.67 432.246 353.355Z" fill="black"/>
<path opacity="0.1" d="M452.971 365.712C454.595 367.327 456.588 368.513 458.376 369.943C462.555 373.279 465.532 377.86 468.441 382.353C469.262 383.535 469.951 384.804 470.496 386.137C470.157 386.433 469.648 386.137 469.313 385.83L463.651 380.841C462.957 380.27 462.325 379.628 461.765 378.925C460.796 377.602 460.35 375.944 459.457 374.548C458.565 373.153 457.266 372.117 456.02 371.032C454.774 369.948 448.748 364.851 450.203 362.887C451.255 363.412 452.123 364.871 452.971 365.712Z" fill="black"/>
<path d="M440.609 302.557C442.402 301.434 444.516 300.962 446.596 300.578C447.845 300.293 449.13 300.202 450.406 300.305C451.584 300.451 452.714 300.908 453.902 300.972C455.564 301.069 457.159 300.388 458.75 299.95C460.34 299.513 462.216 299.338 463.568 300.315C463.856 300.599 464.22 300.793 464.616 300.874C465.026 300.824 465.407 300.636 465.697 300.34C466.835 299.523 468.217 299.119 469.615 299.193C471.013 299.267 472.344 299.815 473.39 300.748C476.459 303.632 476.115 309.268 479.693 311.447C480.686 312.05 481.952 312.37 482.529 313.392C482.666 313.713 482.828 314.024 483.013 314.321C483.254 314.586 483.548 314.797 483.876 314.938C484.92 315.405 485.914 315.977 486.843 316.645C487.306 316.983 487.695 317.412 487.989 317.905C488.282 318.398 488.473 318.945 488.55 319.514C488.567 320.355 488.386 321.188 488.021 321.946C486.263 326.274 483.212 329.951 479.286 332.469C475.361 334.987 470.754 336.224 466.099 336.009C465.28 335.97 464.393 335.859 463.801 335.29C463.455 334.899 463.183 334.449 462.996 333.962C461.309 330.407 458.148 327.781 456.117 324.401C454.915 322.388 454.144 320.137 452.893 318.153C451.032 315.137 448.147 312.896 445.335 310.761C443.745 309.545 441.976 308.271 439.974 308.354C438.194 308.431 436.895 308.529 437.55 306.336C438.086 304.75 439.172 303.409 440.609 302.557Z" fill="#6C63FF"/>
<path opacity="0.05" d="M440.609 302.557C442.402 301.434 444.516 300.962 446.596 300.578C447.845 300.293 449.13 300.202 450.406 300.305C451.584 300.451 452.714 300.908 453.902 300.972C455.564 301.069 457.159 300.388 458.75 299.95C460.34 299.513 462.216 299.338 463.568 300.315C463.856 300.599 464.22 300.793 464.616 300.874C465.026 300.824 465.407 300.636 465.697 300.34C466.835 299.523 468.217 299.119 469.615 299.193C471.013 299.267 472.344 299.815 473.39 300.748C476.459 303.632 476.115 309.268 479.693 311.447C480.686 312.05 481.952 312.37 482.529 313.392C482.666 313.713 482.828 314.024 483.013 314.321C483.254 314.586 483.548 314.797 483.876 314.938C484.92 315.405 485.914 315.977 486.843 316.645C487.306 316.983 487.695 317.412 487.989 317.905C488.282 318.398 488.473 318.945 488.55 319.514C488.567 320.355 488.386 321.188 488.021 321.946C486.263 326.274 483.212 329.951 479.286 332.469C475.361 334.987 470.754 336.224 466.099 336.009C465.28 335.97 464.393 335.859 463.801 335.29C463.455 334.899 463.183 334.449 462.996 333.962C461.309 330.407 458.148 327.781 456.117 324.401C454.915 322.388 454.144 320.137 452.893 318.153C451.032 315.137 448.147 312.896 445.335 310.761C443.745 309.545 441.976 308.271 439.974 308.354C438.194 308.431 436.895 308.529 437.55 306.336C438.086 304.75 439.172 303.409 440.609 302.557Z" fill="black"/>
<path d="M431.902 545.812C433.114 546.945 434.781 547.441 436.396 547.796C440.075 548.603 443.837 548.89 447.59 549.182L451.245 549.464C454.813 549.731 458.386 550.008 461.969 550.023C466.389 550.039 470.802 549.657 475.155 548.88C475.33 548.898 475.506 548.875 475.67 548.812C475.834 548.749 475.981 548.648 476.099 548.517C476.216 548.386 476.302 548.229 476.347 548.059C476.393 547.889 476.398 547.71 476.362 547.538C476.287 543.066 475.744 538.615 474.743 534.257C474.326 532.468 471.126 536.48 470.986 536.65C470.098 537.661 469.425 538.109 468.077 538.196C464.397 538.401 460.272 536.154 457.348 534.16C456.723 533.691 456.058 533.278 455.361 532.925C454.853 532.685 454.312 532.521 453.756 532.439C451.861 532.264 449.956 532.651 448.278 533.552C446.082 534.646 444.152 536.217 441.976 537.34C440.208 538.255 438.298 538.861 436.328 539.135C434.335 539.412 431.965 539.543 430.932 541.275C430.084 542.724 430.695 544.669 431.902 545.812Z" fill="#3F3D56"/>
<path d="M431.902 546.473C433.114 547.606 434.781 548.102 436.396 548.457C440.075 549.264 443.837 549.551 447.59 549.843L451.245 550.125C454.813 550.393 458.386 550.67 461.969 550.684C466.389 550.7 470.803 550.318 475.155 549.542C475.353 549.536 475.549 549.491 475.729 549.407C475.909 549.323 476.07 549.204 476.202 549.055C476.357 548.812 477.021 547.844 477.017 547.557C476.944 543.088 475.737 538.629 474.738 534.277C474.321 532.487 471.122 536.499 470.981 536.669C470.094 537.681 469.42 538.128 468.072 538.216C464.393 538.42 460.267 536.173 457.344 534.179C456.718 533.71 456.053 533.297 455.356 532.944C454.848 532.704 454.307 532.54 453.751 532.458C454.236 535.113 458.022 538.323 459.981 539.3C463.947 541.275 468.659 540.273 473.07 540.521C473.394 540.512 473.714 540.591 473.996 540.749C474.53 541.099 474.559 541.853 474.544 542.49C474.505 543.55 474.37 544.79 473.458 545.33C473.005 545.549 472.506 545.655 472.004 545.637C461.099 546.118 450.173 545.734 439.329 544.489C437.501 544.367 435.703 543.967 433.996 543.302C432.882 542.78 431.843 542.11 430.908 541.309C429.531 542.412 430.695 545.34 431.902 546.473Z" fill="#E8EAF2"/>
<path d="M441.011 279.113C441.074 280.849 439.896 284.214 443.129 283.275C445.069 282.711 445.602 280.421 448.05 280.931C450.498 281.442 451.061 284.467 451.89 286.446C452.564 288.02 453.611 289.405 454.938 290.482C456.266 291.558 457.835 292.295 459.511 292.627C460.201 292.79 460.919 292.79 461.61 292.627C463.19 292.175 464.092 290.541 464.737 289.028C465.292 287.747 465.754 286.428 466.118 285.08C466.365 284.123 466.527 283.147 466.603 282.162C466.654 281.495 466.654 280.825 466.603 280.158C466.307 276.214 464.072 272.616 461.202 269.893C458.332 267.169 454.857 265.21 451.419 263.269C450.296 262.565 449.08 262.022 447.808 261.655C446.554 261.401 445.268 261.348 443.997 261.499C442.323 261.567 440.678 261.955 439.149 262.642C438.523 262.953 437.947 263.358 437.443 263.843C436.733 264.512 436.228 265.371 435.988 266.318C435.368 268.871 436.987 271.181 438.306 273.18C439.474 274.979 440.924 276.881 441.011 279.113Z" fill="#3F3D56"/>
<path opacity="0.1" d="M386.564 316.358C387.257 314.612 390.166 309.779 389.322 308.115C388.451 309.356 387.71 310.685 387.112 312.079C386.564 313.431 387.01 315.244 386.564 316.358Z" fill="black"/>
<path opacity="0.1" d="M438.233 273.19C436.914 271.172 435.29 268.876 435.911 266.328C436.219 265.208 436.878 264.217 437.792 263.503C437.576 263.876 437.413 264.277 437.307 264.694C436.686 267.242 438.31 269.557 439.629 271.556C440.797 273.345 442.247 275.247 442.334 277.479C442.397 279.21 441.214 282.58 444.453 281.641C446.392 281.082 446.925 278.787 449.374 279.302C451.822 279.818 452.379 282.833 453.208 284.812C453.886 286.387 454.936 287.773 456.267 288.85C457.598 289.926 459.171 290.662 460.849 290.993C461.539 291.156 462.258 291.156 462.948 290.993C463.297 290.888 463.625 290.724 463.917 290.507C463.424 291.498 462.565 292.259 461.523 292.627C460.832 292.79 460.114 292.79 459.423 292.627C457.751 292.292 456.184 291.554 454.858 290.478C453.532 289.401 452.487 288.017 451.812 286.446C450.983 284.467 450.445 281.452 447.977 280.931C445.51 280.411 444.986 282.716 443.057 283.275C439.818 284.214 441.001 280.844 440.938 279.113C440.856 276.881 439.401 274.979 438.233 273.19Z" fill="black"/>
<path opacity="0.1" d="M437.516 269.742C437.812 270.233 438.135 270.707 438.485 271.162C439.171 272.026 439.937 272.822 440.774 273.54C441.258 273.973 441.787 274.376 442.32 274.756C443.314 275.455 444.357 276.081 445.442 276.628C448.608 278.228 452.03 279.229 455.439 280.217L462.119 282.162C462.938 282.784 464.441 283.908 466.099 285.08C466.346 284.123 466.508 283.147 466.584 282.162C466.635 281.495 466.635 280.825 466.584 280.158C466.288 276.214 464.053 272.616 461.183 269.893C458.313 267.169 454.837 265.21 451.4 263.269C450.277 262.565 449.061 262.022 447.788 261.655C446.535 261.401 445.248 261.348 443.978 261.499C442.304 261.567 440.659 261.955 439.13 262.642C438.504 262.953 437.928 263.358 437.424 263.843C437.044 264.4 436.754 265.014 436.565 265.662C436.187 267.043 436.769 268.521 437.516 269.742Z" fill="black"/>
<path d="M437.516 269.29C437.812 269.781 438.135 270.255 438.485 270.71C439.171 271.573 439.937 272.37 440.773 273.088C441.258 273.52 441.787 273.924 442.32 274.303C443.314 275.003 444.357 275.629 445.442 276.176C448.608 277.775 452.03 278.777 455.438 279.769L462.119 281.714C464.451 283.485 472.251 289.281 473.565 288.557C475.111 287.706 466.642 281.69 466.642 281.69L466.249 281.987C467.49 281.204 468.14 279.39 468.421 277.824C468.906 275.018 469.148 272.1 468.484 269.328C467.82 266.557 466.162 263.916 463.636 262.618C462.512 262.039 461.149 261.645 460.34 260.755C460.217 260.623 460.11 260.478 460.02 260.322C459.973 260.249 459.931 260.172 459.894 260.094C459.806 259.849 459.687 259.617 459.54 259.403C459.055 258.863 458.231 259.024 457.528 259.111L457.305 259.136C457.179 259.136 457.053 259.136 456.927 259.136C454.416 259.194 451.982 257.789 449.442 257.789C446.654 257.789 444.288 259.403 441.835 260.507C441.35 260.731 440.866 260.935 440.429 261.144C438.66 261.971 437.327 262.851 436.595 265.205C436.187 266.591 436.769 268.069 437.516 269.29Z" fill="#6C63FF"/>
<path opacity="0.1" d="M456.941 259.15C456.805 259.385 456.756 259.661 456.804 259.928C456.852 260.195 456.994 260.437 457.203 260.609C457.514 260.83 457.88 260.962 458.26 260.989C458.532 261.024 458.805 261.045 459.079 261.052C459.451 261.08 459.824 261.014 460.165 260.862C460.233 260.829 460.296 260.788 460.354 260.741C460.232 260.609 460.124 260.464 460.034 260.308C459.971 260.356 459.908 260.347 459.656 260.308C459.198 260.284 458.744 260.205 458.304 260.074C458.069 260.016 457.855 259.895 457.684 259.723C457.513 259.552 457.392 259.337 457.334 259.102L456.941 259.15Z" fill="black"/>
<path opacity="0.1" d="M466.492 281.622C466.14 281.842 465.747 281.989 465.338 282.055C465.044 282.133 464.744 282.181 464.441 282.201C463.675 282.167 462.926 281.956 462.255 281.583L466.492 281.622Z" fill="black"/>
<path d="M256.498 332.936L256.75 332.868L257.405 334.273L262.801 345.944C262.567 346.238 262.353 346.546 262.161 346.868C262.093 346.98 262.025 347.092 261.962 347.223C261.899 347.355 261.831 347.486 261.773 347.622C261.749 347.665 261.729 347.711 261.715 347.758C261.7 347.787 261.705 347.787 261.676 347.855C261.647 347.924 261.623 347.996 261.598 348.065C261.562 348.114 261.542 348.159 261.502 348.204L261.497 348.225L261.472 348.283L261.419 348.475V348.493V348.561L261.39 348.706C261.39 348.711 261.389 348.715 261.389 348.719C261.389 348.721 261.39 348.724 261.39 348.726C261.39 348.728 261.389 348.731 261.389 348.733C261.389 348.737 261.39 348.741 261.39 348.745V348.75V348.765V348.77V348.789C261.392 348.802 261.392 348.815 261.39 348.828V348.867V348.896V348.959C261.377 349.121 261.377 349.284 261.39 349.446V349.567C261.118 349.489 260.818 349.203 260.575 348.493C260.496 348.259 260.456 348.014 260.454 347.768C260.408 346.248 261.686 344.643 261.888 344.39C261.897 344.378 261.904 344.37 261.909 344.364L257.158 334.322L256.498 332.936Z" fill="url(#paint22_linear)"/>
<path d="M262.636 351.084H262.665C262.755 351.049 262.839 350.998 262.912 350.934L262.9 350.953C262.904 350.95 262.908 350.947 262.912 350.943L262.839 351.06L262.796 351.128C262.772 351.164 262.751 351.201 262.733 351.24C262.688 351.31 262.65 351.382 262.61 351.459C262.603 351.473 262.595 351.488 262.587 351.503C262.496 351.687 262.426 351.881 262.379 352.081C262.378 352.086 262.378 352.091 262.377 352.096C262.378 352.101 262.378 352.106 262.379 352.111C262.379 352.111 262.379 352.112 262.378 352.113C262.379 352.114 262.379 352.115 262.379 352.115C262.379 352.116 262.379 352.117 262.378 352.118C262.379 352.119 262.379 352.119 262.379 352.12C262.377 352.13 262.377 352.14 262.378 352.15C262.378 352.153 262.378 352.156 262.379 352.159C262.381 352.164 262.382 352.169 262.382 352.174C262.382 352.174 262.382 352.175 262.382 352.176C262.382 352.18 262.381 352.184 262.379 352.188C262.257 352.007 262.1 351.852 261.918 351.731C261.773 351.645 261.655 351.519 261.577 351.369C261.499 351.218 261.464 351.049 261.477 350.88C261.482 350.686 261.518 350.494 261.584 350.311C261.666 350.516 261.784 350.704 261.933 350.866L262.006 350.934C262.064 350.985 262.132 351.026 262.204 351.055C262.233 351.067 262.262 351.077 262.292 351.084H262.34C262.437 351.109 262.539 351.109 262.636 351.084Z" fill="url(#paint23_linear)"/>
<path d="M281.281 517.854C281.281 517.854 288.553 518.749 292.058 517.534C295.563 516.318 290.972 522.761 286.207 524.288C282.837 525.273 279.366 525.864 275.861 526.049L270.257 520.763L264.308 521.22L265.346 527.055L263.499 527.23L262.781 519.576L281.281 517.854Z" fill="#444053"/>
<path opacity="0.1" d="M281.281 517.854C281.281 517.854 288.553 518.749 292.058 517.534C295.563 516.318 290.972 522.761 286.207 524.288C282.837 525.273 279.366 525.864 275.861 526.049L270.257 520.763L264.308 521.22L265.346 527.055L263.499 527.23L262.781 519.576L281.281 517.854Z" fill="black"/>
<path d="M291.758 531.218C291.758 531.218 300.46 533.129 304.847 532.054C309.234 530.98 302.942 538.274 296.979 539.587C291.016 540.9 284.219 540.56 284.219 540.56L278.048 533.484L270.776 533.363L271.372 540.584H269.108V531.218H291.758Z" fill="#444053"/>
<path opacity="0.1" d="M291.758 531.218C291.758 531.218 300.46 533.129 304.847 532.054C309.234 530.98 302.942 538.274 296.979 539.587C291.016 540.9 284.219 540.56 284.219 540.56L278.048 533.484L270.776 533.363L271.372 540.584H269.108V531.218H291.758Z" fill="black"/>
<path d="M259.567 365.104C259.567 365.104 244.665 381.726 253.604 400.502C253.604 400.502 254.089 403.852 253.725 404.45C253.362 405.049 255.156 412.82 255.156 412.82C255.156 412.82 255.398 426.922 255.156 429.324C254.913 431.727 254.671 433.03 254.671 433.03C254.671 433.03 251.34 459.081 252.412 466.862C253.483 474.642 253.963 488.507 253.963 488.507L258.375 525.82L281.267 521.516L270.892 470.329L270.533 461.24C270.533 461.24 274.829 450.118 272.918 444.497C271.008 438.875 273.403 367.239 273.403 367.239L259.567 365.104Z" fill="#303D5C"/>
<path opacity="0.05" d="M259.567 365.104C259.567 365.104 244.665 381.726 253.604 400.502C253.604 400.502 254.089 403.852 253.725 404.45C253.362 405.049 255.156 412.82 255.156 412.82C255.156 412.82 255.398 426.922 255.156 429.324C254.913 431.727 254.671 433.03 254.671 433.03C254.671 433.03 251.34 459.081 252.412 466.862C253.483 474.642 253.963 488.507 253.963 488.507L258.375 525.82L281.267 521.516L270.892 470.329L270.533 461.24C270.533 461.24 274.829 450.118 272.918 444.497C271.008 438.875 273.403 367.239 273.403 367.239L259.567 365.104Z" fill="black"/>
<path d="M270.533 445.465C273.156 450.488 271.503 462.684 271.503 462.684C268.046 465.675 269.951 491.745 269.951 491.745C269.951 491.745 267.566 517.461 266.02 520.437C264.473 523.413 264.706 535.745 264.706 535.745C282.231 538.974 293.677 532.04 293.677 532.04C293.677 532.04 288.073 519.241 287.957 518.647C287.889 518.312 287.147 519.221 286.924 519.484C287.04 519.323 287.346 518.905 287.957 518.025C290.342 514.674 287.957 508.216 287.957 508.216C287.957 508.216 290.938 487.408 289.508 485.492C288.078 483.576 289.746 476.524 290.579 474.852C291.413 473.179 292.485 469.23 292.485 467.557C292.554 466.257 292.796 464.971 293.202 463.735C296.896 458.468 296.184 449.739 296.184 449.739C296.184 449.739 295.946 437.183 298.089 427.258C300.232 417.332 295.413 389.225 295.413 389.225C295.413 389.225 297.017 383.725 295.825 381.692C295.287 380.778 295.34 378.623 295.592 376.537C295.883 373.984 296.421 371.528 296.421 371.528L263.896 365.737C263.213 366.879 262.587 367.988 262.011 369.053C251.253 388.991 258.505 396.402 258.505 396.402L265.409 417.746C265.409 417.746 267.901 440.446 270.533 445.465Z" fill="#303D5C"/>
<path d="M322.159 289.398L326.808 293.356C326.808 293.356 327.719 292.627 328.941 291.533C331.85 288.897 336.562 284.126 334.797 282.103C332.373 279.341 329.949 281.131 329.799 281.257C330.061 280.98 335.457 275.179 333.246 275.645C331.035 276.112 326.808 281.15 326.808 281.15L323.468 287.069L322.159 289.398Z" fill="#EFB7B9"/>
<path d="M259.805 353.983L265.288 355.656L261.119 362.95L256.348 356.73L259.805 353.983Z" fill="#EFB7B9"/>
<path d="M272.681 285.454C281.308 285.454 288.301 278.439 288.301 269.786C288.301 261.132 281.308 254.117 272.681 254.117C264.054 254.117 257.061 261.132 257.061 269.786C257.061 278.439 264.054 285.454 272.681 285.454Z" fill="#EFB7B9"/>
<path d="M281.863 275.529C281.863 275.529 267.673 298.117 281.145 300.062C294.618 302.008 263.024 315.731 263.024 315.731L251.219 303.773C251.219 303.773 263.499 282.483 261.593 274.352C259.688 266.221 281.863 275.529 281.863 275.529Z" fill="#EFB7B9"/>
<path opacity="0.1" d="M261.996 369.087C265.147 370.045 268.359 370.791 271.609 371.319C271.609 371.319 289.178 379.144 295.578 376.571C295.868 374.018 296.407 371.562 296.407 371.562L263.882 365.771C263.198 366.913 262.568 368.022 261.996 369.087Z" fill="black"/>
<path d="M245.857 309.968L249.033 316.557L252.62 323.978L253.105 325.038L257.357 334.278L262.762 345.988C262.762 345.988 260.852 348.259 261.448 350.053C262.006 351.731 262.878 351.002 262.99 350.9C262.888 351.041 261.734 352.597 262.762 353.283C263.79 353.968 263.475 355.553 263.475 355.553C263.475 355.553 259.063 362.848 258.229 365.479C257.395 368.11 271.585 370.385 271.585 370.385C271.585 370.385 291.733 379.353 296.741 374.928C301.749 370.502 296.741 349.694 296.741 349.694C296.741 349.694 296.741 337.736 295.427 336.661C294.114 335.586 294.739 327.295 294.739 327.295C298.196 320.973 295.81 317.37 295.81 317.37L296.78 301.108C296.78 301.108 295.229 299.43 294.036 299.313C293.283 299.241 292.525 299.241 291.772 299.313C291.772 299.313 291.142 299.099 290.235 298.827C288.325 298.282 285.155 297.529 284.02 298.098C282.353 298.934 271.624 296.78 271.624 296.78C267 296.093 262.342 295.655 257.672 295.467C256.077 295.363 254.476 295.537 252.94 295.982C249.062 297.183 248.373 300.009 248.373 300.009C248.373 300.009 248.858 302.401 246.943 305.509C245.028 308.616 245.857 309.968 245.857 309.968Z" fill="#6C63FF"/>
<path opacity="0.1" d="M322.159 289.398L326.808 293.356C326.808 293.356 327.719 292.627 328.941 291.533C329.309 287.496 325.882 286.962 323.468 287.069L322.159 289.398Z" fill="black"/>
<path d="M294.739 301.001L296.765 301.122C296.765 301.122 301.531 301.716 303.068 300.281C304.604 298.847 310.102 298.37 310.102 298.37C310.102 298.37 311.653 295.258 313.321 294.305C314.989 293.351 319.046 291.552 319.139 290.594C319.231 289.636 320.69 287.847 320.69 287.847C320.69 287.847 329.629 285.692 328.321 292.748C327.012 299.805 319.774 305.898 319.774 305.898C319.774 305.898 318.94 309.847 316.196 310.805C313.452 311.763 295.689 320.132 292.829 317.977C289.969 315.823 294.739 301.001 294.739 301.001Z" fill="#6C63FF"/>
<path opacity="0.1" d="M246.928 305.504C248.834 302.397 248.359 300.004 248.359 300.004C248.359 300.004 249.047 297.179 252.925 295.977C253.682 295.747 254.46 295.594 255.248 295.52C251.427 296.736 250.744 299.527 250.744 299.527C250.744 299.527 251.229 301.92 249.314 305.027C247.399 308.135 248.237 309.453 248.237 309.453L251.418 316.042L255 323.458L255.514 324.523L259.766 333.738L265.171 345.448C265.171 345.448 263.261 347.724 263.857 349.519C264.415 351.196 265.288 350.462 265.399 350.365C265.297 350.501 264.144 352.062 265.171 352.748C266.199 353.433 265.884 355.019 265.884 355.019C265.884 355.019 261.472 362.313 260.638 364.944C259.805 367.575 273.995 369.846 273.995 369.846C273.995 369.846 287.986 376.075 295.548 375.589C289.12 378.118 271.609 370.327 271.609 370.327C271.609 370.327 257.419 368.051 258.253 365.42C259.087 362.79 263.499 355.5 263.499 355.5C263.499 355.5 263.857 353.944 262.786 353.229C261.715 352.514 262.912 350.987 263.014 350.846C262.902 350.948 262.044 351.678 261.472 350C260.876 348.206 262.786 345.935 262.786 345.935L257.381 334.22L253.129 324.98L252.644 323.92L249.057 316.499L245.881 309.91C245.881 309.91 245.018 308.616 246.928 305.504Z" fill="black"/>
<path d="M248.024 308.174L245.881 309.968C245.493 311.148 244.886 312.243 244.093 313.197C242.9 314.515 239.681 327.548 239.681 327.548C239.817 327.849 239.887 328.175 239.887 328.506C239.887 328.836 239.817 329.163 239.681 329.464C239.196 330.436 240.651 331.856 240.651 331.856C240.651 331.856 241.363 331.618 240.166 332.931C238.968 334.244 241.242 335.81 241.242 335.81C241.242 335.81 251.015 352.543 253.042 354.338C255.068 356.132 257.095 360.796 257.095 360.796C257.095 360.796 261.342 354.114 262.34 353.988L258.171 344.544C258.171 344.544 255.306 331.385 253.163 328.982C251.02 326.58 254.234 318.332 254.234 318.332L248.024 308.174Z" fill="#6C63FF"/>
<path opacity="0.1" d="M246.628 332.571C248.422 334.73 251.568 335.187 254.351 334.871C254.758 334.823 255.17 334.759 255.573 334.682C256.182 334.572 256.786 334.431 257.381 334.259C259.511 333.643 261.517 332.655 263.305 331.341C263.695 331.003 264.146 330.742 264.633 330.572C265.748 330.29 266.854 331.122 267.46 332.095C268.066 333.067 268.352 334.215 268.972 335.178C270.194 337.089 272.56 338.008 274.829 338.061C277.097 338.115 279.298 337.434 281.461 336.758C279.71 334.599 277.917 332.352 277.204 329.663C276.808 327.909 276.695 326.103 276.87 324.314C277.383 315.852 280.312 306.934 287.191 302.003C288.383 301.152 289.823 300.145 290.221 298.851C288.311 298.307 285.14 297.553 284.006 298.122C282.338 298.958 271.61 296.804 271.61 296.804C266.985 296.118 262.328 295.679 257.657 295.491C256.062 295.387 254.461 295.561 252.926 296.007C253.512 299.6 254.021 303.175 253.318 306.705C252.83 308.905 252.036 311.025 250.957 313.003C250.346 314.194 249.687 315.366 249.018 316.543C247.205 319.816 245.474 323.098 245.14 326.755C244.999 328.822 245.329 331.005 246.628 332.571Z" fill="black"/>
<path opacity="0.1" d="M270.203 349.397C269.273 349.275 268.332 348.959 267.411 349.154C266.628 349.388 265.911 349.807 265.322 350.374L271.449 350.408C273.025 350.408 275.4 350.506 276.608 349.387C275.502 348.288 271.779 349.601 270.203 349.397Z" fill="black"/>
<path d="M291.443 267.967C292.373 269.252 292.958 270.754 293.144 272.331C293.33 273.908 293.11 275.506 292.504 276.973C291.535 279.283 289.629 281.092 288.471 283.319C287.594 285.047 287.17 286.971 287.237 288.908C287.305 290.846 287.863 292.735 288.859 294.397C289.311 294.989 289.64 295.665 289.828 296.386C290.104 298.21 288.224 299.518 286.725 300.592C279.841 305.514 276.918 314.437 276.404 322.904C276.228 324.693 276.339 326.499 276.734 328.253C277.447 330.942 279.245 333.189 280.995 335.348C278.833 336.024 276.632 336.705 274.358 336.651C272.085 336.598 269.729 335.679 268.502 333.767C267.882 332.795 267.591 331.657 266.99 330.684C266.388 329.712 265.278 328.885 264.173 329.162C263.683 329.327 263.23 329.586 262.84 329.926C260.208 331.862 257.122 333.08 253.881 333.461C251.098 333.782 247.952 333.32 246.163 331.161C244.864 329.59 244.529 327.412 244.708 325.379C245.329 318.138 251.442 312.443 252.858 305.314C254.002 299.537 251.927 293.643 251.549 287.779C250.982 279.088 254.128 270.632 257.226 262.491C257.9 260.474 258.812 258.544 259.941 256.743C262.534 252.931 267.019 250.645 271.576 250.188C273.266 249.953 274.988 250.119 276.603 250.674C278.232 251.306 279.589 252.483 280.913 253.636C283.87 256.208 286.91 258.888 288.611 262.428C289.305 263.887 289.76 265.428 290.55 266.834L291.443 267.967Z" fill="#3F3D56"/>
<g opacity="0.1">
<path opacity="0.1" d="M288.631 264.791C287.855 263.386 287.404 261.83 286.691 260.386C286.029 259.039 285.198 257.782 284.219 256.646C285.997 258.305 287.473 260.261 288.582 262.428C289.256 263.828 289.707 265.346 290.439 266.712L289.498 265.915C289.744 266.242 289.965 266.589 290.158 266.95C289.562 266.297 289.049 265.572 288.631 264.791Z" fill="black"/>
<path opacity="0.1" d="M251.961 331.389C255.202 331.013 258.29 329.796 260.92 327.859C261.311 327.521 261.764 327.262 262.253 327.095C263.363 326.813 264.468 327.645 265.074 328.618C265.2 328.822 265.312 329.041 265.419 329.26C265.025 329.08 264.583 329.037 264.163 329.138C263.673 329.302 263.22 329.562 262.83 329.901C260.199 331.837 257.112 333.055 253.871 333.437C251.088 333.758 247.942 333.296 246.153 331.137C245.93 330.858 245.732 330.56 245.561 330.247C247.365 331.409 249.774 331.642 251.961 331.389Z" fill="black"/>
<path opacity="0.1" d="M272.443 334.589C274.707 334.643 276.913 333.962 279.075 333.286C277.325 331.127 275.531 328.88 274.819 326.191C274.422 324.437 274.309 322.631 274.484 320.842C274.998 312.375 277.926 303.452 284.81 298.531C286.308 297.456 288.204 296.148 287.913 294.319C287.722 293.601 287.393 292.927 286.943 292.335C285.947 290.673 285.388 288.785 285.32 286.847C285.251 284.909 285.675 282.986 286.551 281.257C287.714 279.03 289.605 277.221 290.589 274.906C291.113 273.631 291.348 272.255 291.278 270.878C291.208 269.5 290.833 268.155 290.182 266.941C290.51 267.287 290.86 267.612 291.229 267.913C291.494 268.285 291.782 268.639 292.092 268.973C292.744 270.189 293.118 271.535 293.187 272.913C293.257 274.292 293.02 275.668 292.494 276.944C291.525 279.254 289.619 281.063 288.461 283.29C287.584 285.018 287.16 286.941 287.227 288.879C287.295 290.817 287.853 292.706 288.849 294.368C289.301 294.959 289.63 295.636 289.818 296.357C290.095 298.18 288.214 299.489 286.716 300.563C279.831 305.485 276.908 314.408 276.394 322.874C276.218 324.664 276.329 326.47 276.724 328.224C277.437 330.913 279.235 333.16 280.985 335.319C278.823 335.995 276.622 336.676 274.348 336.622C272.075 336.569 269.719 335.649 268.492 333.738C268.41 333.612 268.337 333.481 268.264 333.349C269.519 334.136 270.964 334.565 272.443 334.589Z" fill="black"/>
</g>
<path opacity="0.2" d="M200.694 223.991V234.203H156.49C157.838 232.33 159.215 230.482 160.621 228.66C160.815 228.407 161.009 228.173 161.212 227.906L163.282 225.294L163.568 224.939L164.32 224.02L200.694 223.991Z" fill="#6C63FF"/>
<path opacity="0.2" d="M292.155 223.991H245.707V234.194H292.155V223.991Z" fill="#6C63FF"/>
<path opacity="0.2" d="M398.834 223.991H352.386V234.194H398.834V223.991Z" fill="#6C63FF"/>
<path opacity="0.2" d="M489.059 223.991H442.611V234.194H489.059V223.991Z" fill="#6C63FF"/>
</g>
<defs>
<linearGradient id="paint0_linear" x1="150.304" y1="278.792" x2="150.304" y2="257.074" gradientUnits="userSpaceOnUse">
<stop stop-color="#808080" stop-opacity="0.25"/>
<stop offset="0.54" stop-color="#808080" stop-opacity="0.12"/>
<stop offset="1" stop-color="#808080" stop-opacity="0.1"/>
</linearGradient>
<linearGradient id="paint1_linear" x1="9357.38" y1="5617.61" x2="9357.38" y2="4647.47" gradientUnits="userSpaceOnUse">
<stop stop-color="#808080" stop-opacity="0.25"/>
<stop offset="0.54" stop-color="#808080" stop-opacity="0.12"/>
<stop offset="1" stop-color="#808080" stop-opacity="0.1"/>
</linearGradient>
<linearGradient id="paint2_linear" x1="14117.8" y1="7542.93" x2="14117.8" y2="6572.79" gradientUnits="userSpaceOnUse">
<stop stop-color="#808080" stop-opacity="0.25"/>
<stop offset="0.54" stop-color="#808080" stop-opacity="0.12"/>
<stop offset="1" stop-color="#808080" stop-opacity="0.1"/>
</linearGradient>
<linearGradient id="paint3_linear" x1="18975.1" y1="8199.53" x2="18975.1" y2="7229.61" gradientUnits="userSpaceOnUse">
<stop stop-color="#808080" stop-opacity="0.25"/>
<stop offset="0.54" stop-color="#808080" stop-opacity="0.12"/>
<stop offset="1" stop-color="#808080" stop-opacity="0.1"/>
</linearGradient>
<linearGradient id="paint4_linear" x1="20276.8" y1="8841.45" x2="20276.8" y2="7871.53" gradientUnits="userSpaceOnUse">
<stop stop-color="#808080" stop-opacity="0.25"/>
<stop offset="0.54" stop-color="#808080" stop-opacity="0.12"/>
<stop offset="1" stop-color="#808080" stop-opacity="0.1"/>
</linearGradient>
<linearGradient id="paint5_linear" x1="21908.9" y1="7126.39" x2="21908.9" y2="6156.25" gradientUnits="userSpaceOnUse">
<stop stop-color="#808080" stop-opacity="0.25"/>
<stop offset="0.54" stop-color="#808080" stop-opacity="0.12"/>
<stop offset="1" stop-color="#808080" stop-opacity="0.1"/>
</linearGradient>
<linearGradient id="paint6_linear" x1="21578.5" y1="8517.49" x2="21578.5" y2="7547.56" gradientUnits="userSpaceOnUse">
<stop stop-color="#808080" stop-opacity="0.25"/>
<stop offset="0.54" stop-color="#808080" stop-opacity="0.12"/>
<stop offset="1" stop-color="#808080" stop-opacity="0.1"/>
</linearGradient>
<linearGradient id="paint7_linear" x1="10795.2" y1="5617.61" x2="10795.2" y2="4647.47" gradientUnits="userSpaceOnUse">
<stop stop-color="#808080" stop-opacity="0.25"/>
<stop offset="0.54" stop-color="#808080" stop-opacity="0.12"/>
<stop offset="1" stop-color="#808080" stop-opacity="0.1"/>
</linearGradient>
<linearGradient id="paint8_linear" x1="5870.26" y1="8021.67" x2="5870.26" y2="7051.53" gradientUnits="userSpaceOnUse">
<stop stop-color="#808080" stop-opacity="0.25"/>
<stop offset="0.54" stop-color="#808080" stop-opacity="0.12"/>
<stop offset="1" stop-color="#808080" stop-opacity="0.1"/>
</linearGradient>
<linearGradient id="paint9_linear" x1="10118" y1="7046.9" x2="10118" y2="6076.97" gradientUnits="userSpaceOnUse">
<stop stop-color="#808080" stop-opacity="0.25"/>
<stop offset="0.54" stop-color="#808080" stop-opacity="0.12"/>
<stop offset="1" stop-color="#808080" stop-opacity="0.1"/>
</linearGradient>
<linearGradient id="paint10_linear" x1="15611.4" y1="6454.28" x2="15611.4" y2="5484.35" gradientUnits="userSpaceOnUse">
<stop stop-color="#808080" stop-opacity="0.25"/>
<stop offset="0.54" stop-color="#808080" stop-opacity="0.12"/>
<stop offset="1" stop-color="#808080" stop-opacity="0.1"/>
</linearGradient>
<linearGradient id="paint11_linear" x1="21172.7" y1="5758.84" x2="21172.7" y2="4788.91" gradientUnits="userSpaceOnUse">
<stop stop-color="#808080" stop-opacity="0.25"/>
<stop offset="0.54" stop-color="#808080" stop-opacity="0.12"/>
<stop offset="1" stop-color="#808080" stop-opacity="0.1"/>
</linearGradient>
<linearGradient id="paint12_linear" x1="17002" y1="5617.61" x2="17002" y2="4647.47" gradientUnits="userSpaceOnUse">
<stop stop-color="#808080" stop-opacity="0.25"/>
<stop offset="0.54" stop-color="#808080" stop-opacity="0.12"/>
<stop offset="1" stop-color="#808080" stop-opacity="0.1"/>
</linearGradient>
<linearGradient id="paint13_linear" x1="16942.4" y1="7542.93" x2="16942.4" y2="6572.79" gradientUnits="userSpaceOnUse">
<stop stop-color="#808080" stop-opacity="0.25"/>
<stop offset="0.54" stop-color="#808080" stop-opacity="0.12"/>
<stop offset="1" stop-color="#808080" stop-opacity="0.1"/>
</linearGradient>
<linearGradient id="paint14_linear" x1="12210.4" y1="6096.34" x2="12210.4" y2="5126.42" gradientUnits="userSpaceOnUse">
<stop stop-color="#808080" stop-opacity="0.25"/>
<stop offset="0.54" stop-color="#808080" stop-opacity="0.12"/>
<stop offset="1" stop-color="#808080" stop-opacity="0.1"/>
</linearGradient>
<linearGradient id="paint15_linear" x1="6610.31" y1="6415.42" x2="6610.31" y2="5445.49" gradientUnits="userSpaceOnUse">
<stop stop-color="#808080" stop-opacity="0.25"/>
<stop offset="0.54" stop-color="#808080" stop-opacity="0.12"/>
<stop offset="1" stop-color="#808080" stop-opacity="0.1"/>
</linearGradient>
<linearGradient id="paint16_linear" x1="7137.19" y1="7542.93" x2="7137.19" y2="6572.79" gradientUnits="userSpaceOnUse">
<stop stop-color="#808080" stop-opacity="0.25"/>
<stop offset="0.54" stop-color="#808080" stop-opacity="0.12"/>
<stop offset="1" stop-color="#808080" stop-opacity="0.1"/>
</linearGradient>
<linearGradient id="paint17_linear" x1="11509" y1="7703.7" x2="11509" y2="6733.78" gradientUnits="userSpaceOnUse">
<stop stop-color="#808080" stop-opacity="0.25"/>
<stop offset="0.54" stop-color="#808080" stop-opacity="0.12"/>
<stop offset="1" stop-color="#808080" stop-opacity="0.1"/>
</linearGradient>
<linearGradient id="paint18_linear" x1="19222.8" y1="5758.84" x2="19222.8" y2="4788.91" gradientUnits="userSpaceOnUse">
<stop stop-color="#808080" stop-opacity="0.25"/>
<stop offset="0.54" stop-color="#808080" stop-opacity="0.12"/>
<stop offset="1" stop-color="#808080" stop-opacity="0.1"/>
</linearGradient>
<linearGradient id="paint19_linear" x1="20155.5" y1="7126.39" x2="20155.5" y2="6156.25" gradientUnits="userSpaceOnUse">
<stop stop-color="#808080" stop-opacity="0.25"/>
<stop offset="0.54" stop-color="#808080" stop-opacity="0.12"/>
<stop offset="1" stop-color="#808080" stop-opacity="0.1"/>
</linearGradient>
<linearGradient id="paint20_linear" x1="14209.9" y1="5617.61" x2="14209.9" y2="4647.47" gradientUnits="userSpaceOnUse">
<stop stop-color="#808080" stop-opacity="0.25"/>
<stop offset="0.54" stop-color="#808080" stop-opacity="0.12"/>
<stop offset="1" stop-color="#808080" stop-opacity="0.1"/>
</linearGradient>
<linearGradient id="paint21_linear" x1="15492.1" y1="8517.49" x2="15492.1" y2="7547.56" gradientUnits="userSpaceOnUse">
<stop stop-color="#808080" stop-opacity="0.25"/>
<stop offset="0.54" stop-color="#808080" stop-opacity="0.12"/>
<stop offset="1" stop-color="#808080" stop-opacity="0.1"/>
</linearGradient>
<linearGradient id="paint22_linear" x1="-47058.5" y1="242927" x2="-47058.5" y2="67002.5" gradientUnits="userSpaceOnUse">
<stop stop-color="#808080" stop-opacity="0.25"/>
<stop offset="0.54" stop-color="#808080" stop-opacity="0.12"/>
<stop offset="1" stop-color="#808080" stop-opacity="0.1"/>
</linearGradient>
<linearGradient id="paint23_linear" x1="-47058.5" y1="242927" x2="-47058.5" y2="67002.5" gradientUnits="userSpaceOnUse">
<stop stop-color="#808080" stop-opacity="0.25"/>
<stop offset="0.54" stop-color="#808080" stop-opacity="0.12"/>
<stop offset="1" stop-color="#808080" stop-opacity="0.1"/>
</linearGradient>
<clipPath id="clip0">
<rect width="571" height="407" fill="white" transform="translate(43 152)"/>
</clipPath>
</defs>
</svg>
