<svg width="92" height="46" viewBox="0 0 92 46" fill="none" xmlns="http://www.w3.org/2000/svg">
<path d="M6.42792 19.0442L7.44235 18.9766C8.52441 18.9134 9.27283 18.413 9.68762 17.4752C9.84992 17.1055 9.99871 16.5464 10.134 15.798C10.2782 15.0496 10.3504 14.4815 10.3504 14.0938C10.3504 13.8233 10.2647 13.6159 10.0934 13.4716C9.92206 13.3183 9.7327 13.2417 9.52531 13.2417C9.44415 13.2417 9.32693 13.2417 9.17364 13.2417C9.02937 13.2326 8.83099 13.2281 8.57851 13.2281C8.32603 13.2191 8.10511 13.2146 7.91575 13.2146L6.42792 19.0442ZM4.11503 13.1876H3.18176C2.95633 13.1876 2.78951 13.1109 2.6813 12.9576C2.5731 12.8043 2.54605 12.624 2.60015 12.4166L3.1006 10.4959C3.13667 10.3336 3.22233 10.2029 3.35759 10.1037C3.49285 9.99549 3.61909 9.94139 3.73631 9.94139H5.61638H7.96985H9.63351C10.8869 9.94139 11.9013 10.239 12.6768 10.8341C13.4523 11.4292 13.84 12.3309 13.84 13.5392C13.84 14.6934 13.6011 15.9288 13.1231 17.2453C12.6543 18.5618 12.1538 19.4725 11.6218 19.9775C11.6038 19.9955 11.5812 20.0135 11.5542 20.0316C11.5361 20.0496 11.5136 20.0766 11.4865 20.1127C11.2431 20.3472 11.0131 20.5455 10.7967 20.7078C10.5803 20.8611 10.2557 21.046 9.82287 21.2624C9.39005 21.4698 8.82197 21.6321 8.11864 21.7493C7.42432 21.8575 6.61277 21.9161 5.68401 21.9252L3.79041 29.3913C3.68221 29.7971 3.40267 30 2.95182 30H0.598347C0.372918 30 0.21061 29.9188 0.111421 29.7565C0.012233 29.5852 -0.0103098 29.3823 0.043793 29.1479L4.11503 13.1876ZM19.6927 17.5564C20.0444 17.0424 20.4141 16.5464 20.8018 16.0685C20.8199 16.0415 20.8559 15.9964 20.91 15.9333C20.9732 15.8611 21.0092 15.8161 21.0182 15.798C21.0363 15.78 21.0678 15.7439 21.1129 15.6898C21.158 15.6357 21.1851 15.6041 21.1941 15.5951C21.2121 15.5771 21.2392 15.55 21.2752 15.514C21.3203 15.4689 21.3519 15.4373 21.3699 15.4193C21.397 15.3922 21.4285 15.3652 21.4646 15.3381C21.5007 15.3021 21.5367 15.275 21.5728 15.257C21.6089 15.2299 21.6449 15.2029 21.681 15.1758C21.8884 15.0316 22.2761 14.9594 22.8442 14.9594H24.3726C24.6071 14.9594 24.7784 15.009 24.8866 15.1082C25.0038 15.1984 25.0173 15.3562 24.9272 15.5816C24.846 15.798 24.6341 16.0595 24.2915 16.3661C23.9218 16.6997 23.3492 17.349 22.5737 18.3138C22.0958 18.927 21.8568 19.3508 21.8568 19.5852C21.8568 20.0631 22.0868 20.514 22.5466 20.9378C22.6098 21.0099 22.6323 21.0821 22.6143 21.1542C22.5962 21.2263 22.5286 21.294 22.4114 21.3571C22.3032 21.4202 22.1724 21.4563 22.0191 21.4653L20.0444 21.6411C19.7288 21.6682 19.4808 21.6096 19.3005 21.4653C19.1923 21.3841 19.039 21.1632 18.8406 20.8025L16.5818 29.3913C16.4736 29.7971 16.1986 30 15.7567 30H13.5115C13.0065 30 12.8036 29.7881 12.9028 29.3643L16.5007 15.6492C16.6089 15.2435 16.8884 15.0406 17.3393 15.0406H19.5845C20.0895 15.0406 20.2924 15.2525 20.1932 15.6763L19.6927 17.5564ZM28.1886 25.5095C28.4772 24.9594 28.7341 24.3553 28.9596 23.697C29.185 23.0388 29.3338 22.5248 29.4059 22.1551C29.5051 21.8305 29.5953 21.3661 29.6764 20.7619C29.7576 20.1578 29.7576 19.5537 29.6764 18.9495C29.5953 18.3363 29.3834 18.0298 29.0407 18.0298C28.662 18.0298 28.3284 18.2236 28.0398 18.6114C27.7513 18.9991 27.4582 19.5717 27.1607 20.3291C27.1516 20.3472 27.102 20.4734 27.0119 20.7078C26.9217 20.9423 26.836 21.1632 26.7549 21.3706C26.6827 21.578 26.5881 21.8575 26.4708 22.2092C26.3626 22.5609 26.268 22.89 26.1868 23.1966C26.1147 23.4941 26.0515 23.8233 25.9974 24.1839C25.9433 24.5446 25.9163 24.8693 25.9163 25.1578C25.9163 25.771 25.9569 26.1993 26.038 26.4427C26.1282 26.6862 26.3356 26.8395 26.6602 26.9026C26.9758 26.8575 27.2418 26.7403 27.4582 26.5509C27.6746 26.3616 27.9181 26.0144 28.1886 25.5095ZM24.1715 18.6114C24.6494 17.5203 25.3212 16.6141 26.1868 15.8927C27.0615 15.1623 28.0984 14.7971 29.2977 14.7971C29.992 14.7971 30.5962 14.9279 31.1102 15.1894C31.6332 15.4509 32.0705 15.9378 32.4222 16.6501C32.5754 16.9387 32.6882 17.2949 32.7603 17.7187C32.8414 18.1335 32.882 18.4626 32.882 18.706C32.891 18.9495 32.8955 19.3643 32.8955 19.9504C32.8955 21.0956 32.7152 22.2768 32.3545 23.4941C31.9938 24.7115 31.5114 25.8296 30.9073 26.8485C30.2851 27.8855 29.5908 28.706 28.8243 29.3102C28.0669 29.9143 27.2824 30.2164 26.4708 30.2164C25.8757 30.2164 25.3753 30.1488 24.9695 30.0135C24.5637 29.8873 24.1489 29.5987 23.7251 29.1479C23.3103 28.706 23.0038 28.1244 22.8054 27.4031C22.607 26.6727 22.5078 25.9243 22.5078 25.1578C22.5078 23.138 23.0624 20.9558 24.1715 18.6114ZM43.1607 22.1551C43.1607 22.1551 41.5196 22.1551 38.2373 22.1551L36.3978 29.3913C36.2896 29.7971 36.0101 30 35.5592 30H33.2058C32.9803 30 32.818 29.9188 32.7188 29.7565C32.6197 29.5852 32.5971 29.3823 32.6512 29.1479L36.7089 13.2417H35.7351C35.4555 13.2417 35.2752 13.165 35.194 13.0117C35.1129 12.8584 35.1174 12.6014 35.2076 12.2408L35.6539 10.4959C35.708 10.2525 35.7666 10.0992 35.8298 10.0361C35.8929 9.97295 36.0191 9.94139 36.2085 9.94139C36.2085 9.94139 36.8803 9.94139 38.2238 9.94139H40.5773H46.4745C47.0335 9.94139 47.2454 10.239 47.1102 10.8341L46.7585 12.4707C46.7225 12.6781 46.6052 12.8584 46.4069 13.0117C46.2175 13.165 46.0191 13.2417 45.8117 13.2417H40.5096L39.0759 18.8683H43.8234C44.3374 18.8683 44.5313 19.1614 44.405 19.7475L44.0399 21.3841C44.0038 21.5915 43.8956 21.7719 43.7152 21.9252C43.5439 22.0784 43.3591 22.1551 43.1607 22.1551ZM53.3014 9.61677C53.3014 9.61677 51.6242 16.2083 48.2698 29.3913C48.1616 29.7971 47.8821 30 47.4312 30H45.3077C45.0101 30 44.8027 29.9143 44.6855 29.743C44.5593 29.5717 44.5232 29.3598 44.5773 29.1073L49.5683 9.58972C49.6765 9.18395 49.9515 8.98106 50.3933 8.98106H52.6927C53.1977 8.98106 53.4006 9.19297 53.3014 9.61677ZM57.2511 25.5095C57.5397 24.9594 57.7966 24.3553 58.0221 23.697C58.2475 23.0388 58.3963 22.5248 58.4684 22.1551C58.5676 21.8305 58.6578 21.3661 58.7389 20.7619C58.8201 20.1578 58.8201 19.5537 58.7389 18.9495C58.6578 18.3363 58.4459 18.0298 58.1032 18.0298C57.7245 18.0298 57.3909 18.2236 57.1023 18.6114C56.8138 18.9991 56.5207 19.5717 56.2232 20.3291C56.2141 20.3472 56.1645 20.4734 56.0744 20.7078C55.9842 20.9423 55.8985 21.1632 55.8174 21.3706C55.7452 21.578 55.6506 21.8575 55.5333 22.2092C55.4251 22.5609 55.3305 22.89 55.2493 23.1966C55.1772 23.4941 55.114 23.8233 55.0599 24.1839C55.0058 24.5446 54.9788 24.8693 54.9788 25.1578C54.9788 25.771 55.0194 26.1993 55.1005 26.4427C55.1907 26.6862 55.3981 26.8395 55.7227 26.9026C56.0383 26.8575 56.3043 26.7403 56.5207 26.5509C56.7371 26.3616 56.9806 26.0144 57.2511 25.5095ZM53.234 18.6114C53.7119 17.5203 54.3837 16.6141 55.2493 15.8927C56.124 15.1623 57.1609 14.7971 58.3602 14.7971C59.0545 14.7971 59.6587 14.9279 60.1727 15.1894C60.6957 15.4509 61.133 15.9378 61.4847 16.6501C61.6379 16.9387 61.7507 17.2949 61.8228 17.7187C61.9039 18.1335 61.9445 18.4626 61.9445 18.706C61.9535 18.9495 61.958 19.3643 61.958 19.9504C61.958 21.0956 61.7777 22.2768 61.417 23.4941C61.0563 24.7115 60.5739 25.8296 59.9698 26.8485C59.3476 27.8855 58.6533 28.706 57.8868 29.3102C57.1294 29.9143 56.3449 30.2164 55.5333 30.2164C54.9382 30.2164 54.4378 30.1488 54.032 30.0135C53.6262 29.8873 53.2114 29.5987 52.7876 29.1479C52.3728 28.706 52.0663 28.1244 51.8679 27.4031C51.6695 26.6727 51.5703 25.9243 51.5703 25.1578C51.5703 23.138 52.1249 20.9558 53.234 18.6114ZM67.194 24.9955C68.5015 21.9297 69.4843 18.954 70.1426 16.0685C70.1336 16.0234 70.1291 15.9558 70.1291 15.8656C70.1291 15.7665 70.1245 15.6943 70.1155 15.6492C70.0885 15.4418 70.1381 15.2885 70.2643 15.1894C70.3996 15.0902 70.5709 15.0406 70.7783 15.0406H72.7395C72.9289 15.0406 73.0686 15.0902 73.1588 15.1894C73.258 15.2885 73.3211 15.4509 73.3482 15.6763C73.6097 18.9315 73.6502 22.0153 73.4699 24.9279C74.8405 21.6727 75.8549 18.5167 76.5132 15.4599C76.5853 15.0721 76.8243 14.8963 77.23 14.9324L79.313 15.0947C79.5204 15.1217 79.6737 15.1984 79.7729 15.3246C79.8721 15.4509 79.8901 15.6041 79.827 15.7845C78.1318 21.2759 76.405 25.4869 74.6466 28.4175C74.331 28.9495 74.047 29.3463 73.7945 29.6078C73.5511 29.8693 73.3031 30 73.0506 30L71.0758 29.8918C70.8324 29.8738 70.6205 29.7115 70.4401 29.4049C70.2598 29.0893 70.1877 28.7151 70.2237 28.2822C70.359 26.7764 70.4266 25.0992 70.4266 23.2507C69.6151 25.4779 68.8351 27.2002 68.0867 28.4175C67.7711 28.9495 67.487 29.3463 67.2346 29.6078C66.9911 29.8693 66.7476 30 66.5042 30L64.5429 29.8918C64.2995 29.8738 64.0831 29.7115 63.8937 29.4049C63.7134 29.0893 63.6412 28.7151 63.6773 28.2822C64.0019 24.6123 63.9658 20.4013 63.5691 15.6492C63.542 15.4418 63.5916 15.2885 63.7179 15.1894C63.8531 15.0902 64.0245 15.0406 64.2318 15.0406H66.4501C66.6575 15.0406 66.8062 15.0902 66.8964 15.1894C66.9956 15.2885 67.0587 15.4509 67.0858 15.6763C67.3382 18.8954 67.3743 22.0018 67.194 24.9955Z" fill="#F73A46"/>
<path d="M1.91786 37.2606L2.48323 37.2308C3.02216 37.211 3.39577 37.0077 3.60406 36.6208C3.73631 36.3762 3.8355 36.0968 3.90163 35.7827C3.97106 35.4653 4.00578 35.2008 4.00578 34.9892C4.00578 34.5891 3.77599 34.3792 3.31642 34.3593C3.16763 34.3527 2.94942 34.3478 2.66177 34.3445L1.91786 37.2606ZM1.83851 34.3395C1.7261 34.3395 1.61864 34.3395 1.51615 34.3395C1.41696 34.3395 1.34753 34.3114 1.30785 34.2552C1.26818 34.1957 1.25826 34.1279 1.27809 34.0518L1.33761 33.8485C1.35083 33.789 1.38224 33.7411 1.43184 33.7047C1.48143 33.665 1.52772 33.6452 1.5707 33.6452H3.16267C3.70821 33.6452 4.1215 33.7592 4.40253 33.9874C4.68687 34.2155 4.82904 34.5891 4.82904 35.1082C4.82904 35.4917 4.74638 35.9149 4.58107 36.3778C4.41906 36.8407 4.22399 37.1598 3.99586 37.335C3.88344 37.4209 3.80409 37.4805 3.75781 37.5135C3.71482 37.5433 3.60902 37.5978 3.4404 37.6772C3.27178 37.7565 3.10481 37.8127 2.9395 37.8458C2.59234 37.9152 2.19228 37.9533 1.73932 37.9599L1.0202 40.7768C0.980529 40.9256 0.879687 41 0.717679 41H0.425073C0.342416 41 0.282903 40.9702 0.246534 40.9107C0.210165 40.8479 0.201899 40.7735 0.221737 40.6876L1.83851 34.3395ZM6.58165 37.206C7.02139 36.4919 7.36194 36.0538 7.6033 35.8918C7.68265 35.8356 7.82482 35.8075 8.02981 35.8075H8.12899C8.32406 35.8075 8.39184 35.8835 8.33233 36.0356C8.30257 36.1183 8.21992 36.2208 8.08436 36.3431C7.9488 36.4621 7.76861 36.6638 7.54378 36.9482C7.31896 37.2325 7.20654 37.4176 7.20654 37.5036C7.20654 37.6821 7.29085 37.8491 7.45947 38.0045C7.49915 38.0376 7.51072 38.0739 7.49419 38.1136C7.48096 38.1533 7.44625 38.1781 7.39004 38.188L7.00321 38.2574C6.8941 38.274 6.81144 38.2624 6.75523 38.2227C6.69903 38.1797 6.62794 38.0772 6.54198 37.9152L6.45767 37.7615L5.67408 40.7768C5.6344 40.9256 5.53191 41 5.3666 41H5.07399C4.88884 41 4.81445 40.9223 4.85082 40.7669L6.09067 36.0455C6.12704 35.91 6.22127 35.8422 6.37336 35.8422H6.6858C6.77507 35.8422 6.83459 35.8587 6.86434 35.8918C6.8941 35.9216 6.89906 35.9761 6.87922 36.0555L6.58165 37.206ZM9.41016 39.9337C9.87635 39.1997 10.121 38.3897 10.1442 37.5036C10.1541 37.1069 10.1326 36.8407 10.0797 36.7051C10.0301 36.5696 9.92925 36.5002 9.77716 36.4968C9.62507 36.4902 9.48621 36.5613 9.36057 36.7101C9.23824 36.8556 9.11921 37.049 9.00349 37.2904C8.69601 37.9252 8.53069 38.6377 8.50755 39.4279C8.49432 40.0395 8.60012 40.3536 8.82495 40.3702C9.02333 40.3768 9.2184 40.2313 9.41016 39.9337ZM7.68428 39.5271C7.71735 38.6145 7.9058 37.8293 8.24966 37.1713C8.39844 36.8804 8.52077 36.6704 8.61665 36.5415C8.71254 36.4092 8.82826 36.2786 8.96381 36.1497C9.24485 35.8819 9.58374 35.7513 9.9805 35.7579C10.321 35.7744 10.5855 35.9447 10.774 36.2687C10.9129 36.4902 10.9724 36.8605 10.9525 37.3796C10.936 37.8954 10.8484 38.4013 10.6897 38.8972C10.5343 39.3898 10.3591 39.8015 10.164 40.1321C9.77385 40.7834 9.27626 41.0992 8.67121 41.0794C8.44969 41.0694 8.24966 40.9752 8.07112 40.7967C7.95209 40.6843 7.85456 40.5189 7.77851 40.3007C7.70577 40.0792 7.67436 39.8213 7.68428 39.5271ZM12.8502 35.2818C12.7311 35.2818 12.627 35.2338 12.5377 35.138C12.4484 35.0388 12.4038 34.9231 12.4038 34.7908C12.4038 34.6552 12.4517 34.5395 12.5476 34.4436C12.6468 34.3445 12.7658 34.2949 12.9047 34.2949H12.994C13.1064 34.2949 13.2105 34.3461 13.3064 34.4486C13.4023 34.5511 13.4502 34.6685 13.4502 34.8007C13.4502 34.9297 13.4006 35.0421 13.3015 35.138C13.2023 35.2338 13.0799 35.2818 12.9345 35.2818H12.8502ZM12.5675 35.8422H12.8849C13.0469 35.8422 13.1113 35.9133 13.0783 36.0555L11.8384 40.7768C11.65 41.4877 11.2664 42.0497 10.6878 42.463C10.4266 42.6482 10.1671 42.7804 9.90921 42.8598C9.77035 42.8995 9.66455 42.8714 9.59181 42.7755L9.51246 42.6564C9.46948 42.6002 9.4546 42.5374 9.46783 42.468C9.47774 42.3986 9.51907 42.349 9.59181 42.3192C9.88938 42.2035 10.1853 41.9985 10.4795 41.7042C10.7705 41.41 10.9755 41.0364 11.0945 40.5834L12.2947 36.0455C12.3311 35.91 12.422 35.8422 12.5675 35.8422ZM14.0481 38.9369C14.7358 38.6393 15.2036 38.2359 15.4516 37.7268C15.5772 37.4656 15.64 37.2093 15.64 36.9581C15.64 36.7068 15.5673 36.5812 15.4218 36.5812C15.1044 36.5812 14.83 36.8291 14.5986 37.3251C14.3704 37.821 14.1869 38.3583 14.0481 38.9369ZM13.9191 39.6064C13.8695 39.8907 13.8728 40.0908 13.929 40.2065C13.9852 40.3189 14.0745 40.39 14.1968 40.4197C14.4481 40.3272 14.7556 40.0742 15.1193 39.661C15.1821 39.5981 15.2499 39.5915 15.3226 39.6411L15.5161 39.7601C15.5557 39.7833 15.5838 39.8197 15.6004 39.8693C15.6202 39.9155 15.6219 39.9536 15.6053 39.9833C15.4797 40.228 15.2416 40.4892 14.8912 40.7669C14.544 41.0413 14.2646 41.157 14.053 41.1141C13.5736 40.9983 13.2926 40.7471 13.2099 40.3602C13.1471 40.0528 13.1587 39.6411 13.2446 39.1253C13.3339 38.6096 13.4976 38.0772 13.7356 37.5284C14.0828 36.725 14.4845 36.2175 14.9408 36.0059C15.3011 35.8372 15.6301 35.8191 15.9277 35.9513C16.2286 36.0836 16.379 36.4125 16.379 36.9382C16.379 37.2424 16.3046 37.5416 16.1558 37.8359C15.888 38.3616 15.4152 38.8228 14.7374 39.2196C14.4729 39.375 14.2002 39.5039 13.9191 39.6064ZM17.7774 36.1447C17.9163 36.0158 18.0618 35.9232 18.2139 35.867C18.3693 35.8075 18.518 35.7876 18.6602 35.8075C18.8057 35.824 18.9478 35.8753 19.0867 35.9612C19.2785 36.0769 19.4405 36.2109 19.5727 36.3629C19.705 36.5117 19.7314 36.6324 19.6521 36.725L19.4785 36.9184C19.3628 37.0341 19.2603 37.0506 19.171 36.968C19.1611 36.9581 19.1214 36.9184 19.052 36.849C18.9826 36.7762 18.9247 36.7184 18.8784 36.6754C18.7329 36.5531 18.6007 36.5018 18.4817 36.5216C18.2403 36.5679 17.9841 36.8275 17.713 37.3003C17.4451 37.7731 17.2501 38.2607 17.1277 38.7633C17.0054 39.2659 16.9757 39.6891 17.0385 40.0329C17.0517 40.1123 17.1145 40.1867 17.2269 40.2561C17.3426 40.3222 17.4286 40.3503 17.4848 40.3404C17.6931 40.2247 17.9212 40.0213 18.1692 39.7304C18.2254 39.6709 18.275 39.6428 18.318 39.6461C18.361 39.6461 18.4188 39.6676 18.4916 39.7106L18.6453 39.8097C18.7247 39.856 18.7544 39.9122 18.7346 39.9784C18.6784 40.1668 18.4965 40.3883 18.1891 40.6429C17.8816 40.8942 17.6601 41.038 17.5245 41.0744C17.3889 41.1108 17.1856 41.0595 16.9145 40.9206C16.6434 40.7818 16.4748 40.6462 16.4086 40.514C16.2698 40.1999 16.2301 39.8114 16.2896 39.3485C16.3524 38.8823 16.4599 38.4327 16.612 37.9995C16.7641 37.5664 16.9128 37.2441 17.0583 37.0325C17.2038 36.8176 17.3261 36.6489 17.4253 36.5266C17.5245 36.401 17.6419 36.2737 17.7774 36.1447ZM21.8011 34.275C21.8011 34.275 21.6672 34.7974 21.3994 35.8422H21.935C22.011 35.8422 22.0606 35.8587 22.0838 35.8918C22.1069 35.9249 22.1069 35.9827 22.0838 36.0654L22.0144 36.3282C21.9714 36.477 21.8838 36.5514 21.7515 36.5514H21.2208L20.1446 40.7768C20.105 40.9256 20.0041 41 19.8421 41H19.6487C19.5396 41 19.4619 40.9686 19.4156 40.9058C19.3726 40.843 19.3611 40.7653 19.3809 40.6727L20.4323 36.5514H20.0355C19.9661 36.5514 19.9198 36.5349 19.8967 36.5018C19.8768 36.4654 19.8785 36.401 19.9016 36.3084L19.981 36.0356C20.0174 35.9067 20.0917 35.8422 20.2042 35.8422H20.6158L21.0175 34.2651C21.0572 34.1163 21.1597 34.0419 21.325 34.0419H21.5779C21.7631 34.0419 21.8375 34.1196 21.8011 34.275ZM25.8928 33.8683C25.9325 33.7229 26.03 33.6485 26.1854 33.6452H26.5127C26.6549 33.6452 26.7359 33.7229 26.7557 33.8783C26.9409 35.8422 26.9987 37.2738 26.9293 38.1731L29.528 33.8386C29.6008 33.7096 29.7016 33.6452 29.8306 33.6452H30.1678C30.2405 33.6518 30.2934 33.6849 30.3265 33.7444C30.3629 33.8039 30.3711 33.8766 30.3513 33.9626L28.6155 40.7768C28.5758 40.9256 28.4733 41 28.308 41H28.0154C27.9328 41 27.8732 40.9702 27.8369 40.9107C27.8005 40.8479 27.7922 40.7735 27.8121 40.6876L28.9825 36.0951C28.7477 36.5084 28.4188 37.049 27.9956 37.7169C27.5724 38.3814 27.3046 38.8046 27.1921 38.9865C27.0202 39.2609 26.8499 39.3931 26.6813 39.3832L26.478 39.3733C26.2928 39.3634 26.2085 39.2278 26.2251 38.9666C26.2713 38.2492 26.2515 37.2689 26.1655 36.0257L24.9554 40.7768C24.9158 40.9256 24.8149 41 24.6529 41H24.3554C24.2727 41 24.2132 40.9702 24.1768 40.9107C24.1404 40.8479 24.1322 40.7735 24.152 40.6876L25.8928 33.8683ZM32.9144 36.6109C32.5871 36.4258 32.3259 36.3993 32.1308 36.5316C31.9357 36.6605 31.7489 36.92 31.5704 37.3102C31.2662 37.9714 31.0546 38.6228 30.9356 39.2642C30.8827 39.5485 30.8612 39.7519 30.8711 39.8742C30.8843 39.9932 30.9356 40.0775 31.0249 40.1271C31.1141 40.1767 31.2315 40.142 31.377 40.023C31.5258 39.904 31.6795 39.7238 31.8382 39.4824C32.0002 39.2411 32.1573 38.9237 32.3093 38.5302C32.4647 38.1335 32.6664 37.4937 32.9144 36.6109ZM33.0681 36.0406C33.1045 35.8852 33.1822 35.8075 33.3012 35.8075L33.5343 35.7976C33.6567 35.7976 33.7426 35.8306 33.7922 35.8968C33.8418 35.9629 33.8484 36.0521 33.8121 36.1646L32.597 40.2263C32.8053 40.0742 33.0136 39.8511 33.2219 39.5568C33.2946 39.451 33.3789 39.4279 33.4748 39.4874L33.7178 39.651C33.8236 39.7205 33.8402 39.8048 33.7674 39.904C33.493 40.2313 33.2384 40.4842 33.0037 40.6628C32.7689 40.838 32.4928 40.9636 32.1754 41.0397C32.1325 41.0496 32.0928 41.043 32.0564 41.0198C32.0234 40.9967 32.0019 40.9669 31.9919 40.9306L31.7985 40.3652C31.6927 40.5173 31.5605 40.6661 31.4018 40.8115C31.2464 40.957 31.1108 41.0298 30.9951 41.0298H30.9753C30.9224 41.0298 30.8381 40.9917 30.7223 40.9157C30.6099 40.8363 30.5206 40.757 30.4545 40.6776C30.3917 40.5983 30.3471 40.5421 30.3206 40.509C30.2975 40.476 30.271 40.4346 30.2413 40.385C30.2115 40.3321 30.19 40.2809 30.1768 40.2313C30.1636 40.1817 30.152 40.1238 30.1421 40.0577C30.1222 39.942 30.1255 39.7717 30.152 39.5469C30.2247 38.9947 30.395 38.3649 30.6628 37.6573C30.9339 36.9465 31.1984 36.4704 31.4563 36.229C31.7142 35.9844 32.0382 35.862 32.4284 35.862C32.6565 35.862 32.8698 35.9216 33.0681 36.0406ZM37.2982 36.9134C37.2982 36.8539 37.2751 36.8242 37.2288 36.8242C37.1825 36.8242 37.1263 36.8556 37.0602 36.9184C36.9973 36.9812 36.9097 37.092 36.7973 37.2507C36.6617 37.4524 36.503 37.6987 36.3212 37.9896C36.1427 38.2773 35.9162 38.6344 35.6418 39.0609C35.1359 39.8478 34.8235 40.3487 34.7044 40.5636C34.5854 40.7752 34.5209 40.8892 34.511 40.9058C34.5011 40.919 34.4912 40.9306 34.4813 40.9405C34.4713 40.9504 34.4614 40.9587 34.4515 40.9653C34.4416 40.9719 34.4317 40.9785 34.4217 40.9851C34.4118 40.9884 34.4019 40.9917 34.392 40.995C34.3854 40.9983 34.3771 41 34.3672 41C34.2482 41 34.149 41 34.0696 41C33.9109 41 33.8547 40.9124 33.901 40.7372L35.1309 36.105C35.1475 36.0125 35.169 35.9463 35.1954 35.9067C35.2252 35.8637 35.2715 35.8422 35.3343 35.8422H35.7509C35.8368 35.8422 35.8914 35.862 35.9145 35.9017C35.9377 35.9414 35.936 36.0191 35.9096 36.1348L35.1508 38.6939L36.2071 36.9482C36.4253 36.5812 36.6535 36.3051 36.8915 36.1199C37.1329 35.9348 37.3379 35.8422 37.5065 35.8422H37.7198C38.0934 35.8422 38.2091 36.1332 38.0669 36.7151L36.9263 40.8562C36.9064 40.9521 36.8519 41 36.7626 41H36.2369C36.1542 41 36.1278 40.919 36.1575 40.757L37.2238 37.2705C37.2734 37.092 37.2982 36.9729 37.2982 36.9134ZM41.0247 36.6109C40.6974 36.4258 40.4362 36.3993 40.2412 36.5316C40.0461 36.6605 39.8593 36.92 39.6807 37.3102C39.3766 37.9714 39.165 38.6228 39.0459 39.2642C38.993 39.5485 38.9715 39.7519 38.9815 39.8742C38.9947 39.9932 39.0459 40.0775 39.1352 40.1271C39.2245 40.1767 39.3419 40.142 39.4873 40.023C39.6361 39.904 39.7899 39.7238 39.9486 39.4824C40.1106 39.2411 40.2676 38.9237 40.4197 38.5302C40.5751 38.1335 40.7768 37.4937 41.0247 36.6109ZM41.1785 36.0406C41.2149 35.8852 41.2926 35.8075 41.4116 35.8075L41.6447 35.7976C41.767 35.7976 41.853 35.8306 41.9026 35.8968C41.9522 35.9629 41.9588 36.0521 41.9224 36.1646L40.7073 40.2263C40.9156 40.0742 41.1239 39.8511 41.3322 39.5568C41.405 39.451 41.4893 39.4279 41.5852 39.4874L41.8282 39.651C41.934 39.7205 41.9505 39.8048 41.8778 39.904C41.6033 40.2313 41.3488 40.4842 41.114 40.6628C40.8793 40.838 40.6032 40.9636 40.2858 41.0397C40.2428 41.0496 40.2031 41.043 40.1668 41.0198C40.1337 40.9967 40.1122 40.9669 40.1023 40.9306L39.9089 40.3652C39.8031 40.5173 39.6708 40.6661 39.5121 40.8115C39.3567 40.957 39.2212 41.0298 39.1055 41.0298H39.0856C39.0327 41.0298 38.9484 40.9917 38.8327 40.9157C38.7203 40.8363 38.631 40.757 38.5649 40.6776C38.5021 40.5983 38.4574 40.5421 38.431 40.509C38.4078 40.476 38.3814 40.4346 38.3516 40.385C38.3219 40.3321 38.3004 40.2809 38.2871 40.2313C38.2739 40.1817 38.2624 40.1238 38.2524 40.0577C38.2326 39.942 38.2359 39.7717 38.2624 39.5469C38.3351 38.9947 38.5054 38.3649 38.7732 37.6573C39.0443 36.9465 39.3088 36.4704 39.5667 36.229C39.8246 35.9844 40.1486 35.862 40.5387 35.862C40.7669 35.862 40.9801 35.9216 41.1785 36.0406ZM45.1804 35.8521C45.1804 35.8521 45.2796 35.8488 45.478 35.8422C45.6466 35.8356 45.7127 35.9232 45.6764 36.105C45.3755 37.2821 45.0515 38.4757 44.7043 39.6858C44.3572 40.8959 44.1836 41.5026 44.1836 41.5059C44.0083 42.1374 43.7422 42.5506 43.3851 42.7457C43.2231 42.8317 43.114 42.8846 43.0578 42.9044C42.9222 42.9573 42.7222 42.9077 42.4577 42.7556L41.4212 42.1704C41.3319 42.1307 41.284 42.0729 41.2774 41.9968C41.2707 41.9208 41.2922 41.8563 41.3418 41.8034L41.4956 41.5902C41.6047 41.4711 41.7154 41.443 41.8279 41.5059L42.9586 42.2002C43.114 42.2696 43.2248 42.177 43.2909 41.9225L43.7819 40.142C43.6298 40.3933 43.4628 40.6049 43.281 40.7768C43.0991 40.9454 42.9503 41.0298 42.8346 41.0298H42.8148C42.7619 41.0298 42.6776 40.9917 42.5619 40.9157C42.4461 40.8363 42.3337 40.7322 42.2246 40.6032C42.1188 40.471 42.0444 40.3354 42.0014 40.1966C41.9585 40.0577 41.9634 39.775 42.0163 39.3485C42.0725 38.922 42.2345 38.3533 42.5023 37.6425C42.7701 36.9283 43.033 36.4539 43.2909 36.2191C43.5488 35.9811 43.8744 35.862 44.2679 35.862C44.4993 35.862 44.7142 35.9249 44.9126 36.0505C44.9424 35.9645 44.9705 35.91 44.9969 35.8868C45.0267 35.8637 45.0879 35.8521 45.1804 35.8521ZM44.7539 36.6159C44.4233 36.4274 44.1604 36.3993 43.9654 36.5316C43.7703 36.6605 43.5818 36.9217 43.4 37.3151C43.0991 37.9731 42.8908 38.6228 42.7751 39.2642C42.7222 39.5485 42.7007 39.7519 42.7106 39.8742C42.7206 39.9932 42.7701 40.0775 42.8594 40.1271C42.9487 40.1767 43.0677 40.142 43.2165 40.023C43.3653 39.904 43.519 39.7238 43.6777 39.4824C43.8397 39.2411 43.9984 38.9203 44.1538 38.5203C44.3125 38.1202 44.5026 37.5152 44.7242 36.7051L44.7539 36.6159ZM46.5969 38.9369C47.2846 38.6393 47.7524 38.2359 48.0004 37.7268C48.126 37.4656 48.1889 37.2093 48.1889 36.9581C48.1889 36.7068 48.1161 36.5812 47.9707 36.5812C47.6533 36.5812 47.3788 36.8291 47.1474 37.3251C46.9193 37.821 46.7358 38.3583 46.5969 38.9369ZM46.4679 39.6064C46.4184 39.8907 46.4217 40.0908 46.4779 40.2065C46.5341 40.3189 46.6233 40.39 46.7457 40.4197C46.997 40.3272 47.3044 40.0742 47.6681 39.661C47.7309 39.5981 47.7987 39.5915 47.8715 39.6411L48.0649 39.7601C48.1046 39.7833 48.1327 39.8197 48.1492 39.8693C48.169 39.9155 48.1707 39.9536 48.1542 39.9833C48.0285 40.228 47.7905 40.4892 47.44 40.7669C47.0928 41.0413 46.8135 41.157 46.6019 41.1141C46.1224 40.9983 45.8414 40.7471 45.7588 40.3602C45.6959 40.0528 45.7075 39.6411 45.7935 39.1253C45.8827 38.6096 46.0464 38.0772 46.2845 37.5284C46.6316 36.725 47.0333 36.2175 47.4896 36.0059C47.85 35.8372 48.1789 35.8191 48.4765 35.9513C48.7774 36.0836 48.9278 36.4125 48.9278 36.9382C48.9278 37.2424 48.8534 37.5416 48.7046 37.8359C48.4368 38.3616 47.964 38.8228 47.2863 39.2196C47.0218 39.375 46.749 39.5039 46.4679 39.6064ZM52.2406 36.9134C52.2406 36.8539 52.2174 36.8242 52.1712 36.8242C52.1249 36.8242 52.0687 36.8556 52.0025 36.9184C51.9397 36.9812 51.8521 37.092 51.7397 37.2507C51.6041 37.4524 51.4454 37.6987 51.2636 37.9896C51.085 38.2773 50.8586 38.6344 50.5841 39.0609C50.0783 39.8478 49.7658 40.3487 49.6468 40.5636C49.5278 40.7752 49.4633 40.8892 49.4534 40.9058C49.4435 40.919 49.4336 40.9306 49.4236 40.9405C49.4137 40.9504 49.4038 40.9587 49.3939 40.9653C49.384 40.9719 49.374 40.9785 49.3641 40.9851C49.3542 40.9884 49.3443 40.9917 49.3344 40.995C49.3278 40.9983 49.3195 41 49.3096 41C49.1905 41 49.0914 41 49.012 41C48.8533 41 48.7971 40.9124 48.8434 40.7372L50.0733 36.105C50.0766 36.0984 50.0799 36.0836 50.0832 36.0604C50.0899 36.0373 50.0932 36.0224 50.0932 36.0158C50.1064 35.9695 50.1147 35.9447 50.118 35.9414C50.1213 35.9348 50.1262 35.9249 50.1328 35.9116C50.1394 35.8984 50.1444 35.8901 50.1477 35.8868C50.1543 35.8835 50.1626 35.8786 50.1725 35.872C50.1824 35.862 50.1923 35.8554 50.2023 35.8521C50.2221 35.8455 50.2469 35.8422 50.2767 35.8422H50.6933C50.7792 35.8422 50.8338 35.862 50.8569 35.9017C50.8834 35.9414 50.8817 36.0191 50.852 36.1348L50.0932 38.6939L51.1495 36.9482C51.3545 36.6076 51.581 36.3381 51.829 36.1398C52.0802 35.9414 52.2869 35.8422 52.4489 35.8422H52.6621C53.0358 35.8422 53.1515 36.1332 53.0093 36.7151L52.4836 38.6195L53.4656 36.9382C53.6739 36.5745 53.8987 36.3018 54.14 36.1199C54.3847 35.9348 54.593 35.8422 54.7649 35.8422H54.9782C55.2658 35.8422 55.4014 35.9811 55.3849 36.2588C55.3783 36.3712 55.3568 36.5233 55.3204 36.7151L54.1847 40.8562C54.1648 40.9521 54.1103 41 54.021 41H53.4953C53.459 41 53.4292 40.9802 53.4061 40.9405C53.3862 40.9008 53.3879 40.8396 53.411 40.757L54.4773 37.2705C54.5269 37.092 54.5517 36.9729 54.5517 36.9134C54.5517 36.8539 54.5252 36.8242 54.4723 36.8242C54.4227 36.8242 54.3434 36.8886 54.2343 37.0176C54.1252 37.1432 53.9582 37.3862 53.7334 37.7466C53.5119 38.1037 53.2804 38.4707 53.0391 38.8476C52.801 39.2212 52.6357 39.4824 52.5431 39.6312C52.2456 40.1106 52.0207 40.5189 51.8686 40.8562C51.829 40.9521 51.7711 41 51.6951 41H51.1793C51.0966 41 51.0702 40.919 51.0999 40.757L52.1662 37.2705C52.2158 37.092 52.2406 36.9729 52.2406 36.9134ZM56.3723 38.9369C57.06 38.6393 57.5278 38.2359 57.7758 37.7268C57.9014 37.4656 57.9643 37.2093 57.9643 36.9581C57.9643 36.7068 57.8915 36.5812 57.746 36.5812C57.4286 36.5812 57.1542 36.8291 56.9228 37.3251C56.6946 37.821 56.5111 38.3583 56.3723 38.9369ZM56.2433 39.6064C56.1937 39.8907 56.1971 40.0908 56.2533 40.2065C56.3095 40.3189 56.3987 40.39 56.5211 40.4197C56.7723 40.3272 57.0798 40.0742 57.4435 39.661C57.5063 39.5981 57.5741 39.5915 57.6469 39.6411L57.8403 39.7601C57.8799 39.7833 57.9081 39.8197 57.9246 39.8693C57.9444 39.9155 57.9461 39.9536 57.9295 39.9833C57.8039 40.228 57.5659 40.4892 57.2154 40.7669C56.8682 41.0413 56.5888 41.157 56.3772 41.1141C55.8978 40.9983 55.6168 40.7471 55.5341 40.3602C55.4713 40.0528 55.4829 39.6411 55.5689 39.1253C55.6581 38.6096 55.8218 38.0772 56.0598 37.5284C56.407 36.725 56.8087 36.2175 57.265 36.0059C57.6254 35.8372 57.9543 35.8191 58.2519 35.9513C58.5528 36.0836 58.7032 36.4125 58.7032 36.9382C58.7032 37.2424 58.6288 37.5416 58.48 37.8359C58.2122 38.3616 57.7394 38.8228 57.0616 39.2196C56.7971 39.375 56.5244 39.5039 56.2433 39.6064ZM62.016 36.9134C62.016 36.8539 61.9928 36.8242 61.9465 36.8242C61.9003 36.8242 61.8441 36.8556 61.7779 36.9184C61.7151 36.9812 61.6275 37.092 61.5151 37.2507C61.3795 37.4524 61.2208 37.6987 61.039 37.9896C60.8604 38.2773 60.634 38.6344 60.3595 39.0609C59.8537 39.8478 59.5412 40.3487 59.4222 40.5636C59.3032 40.7752 59.2387 40.8892 59.2288 40.9058C59.2189 40.919 59.2089 40.9306 59.199 40.9405C59.1891 40.9504 59.1792 40.9587 59.1693 40.9653C59.1594 40.9719 59.1494 40.9785 59.1395 40.9851C59.1296 40.9884 59.1197 40.9917 59.1098 40.995C59.1031 40.9983 59.0949 41 59.085 41C58.9659 41 58.8667 41 58.7874 41C58.6287 41 58.5725 40.9124 58.6188 40.7372L59.8487 36.105C59.8652 36.0125 59.8867 35.9463 59.9132 35.9067C59.9429 35.8637 59.9892 35.8422 60.0521 35.8422H60.4686C60.5546 35.8422 60.6092 35.862 60.6323 35.9017C60.6554 35.9414 60.6538 36.0191 60.6273 36.1348L59.8686 38.6939L60.9249 36.9482C61.1431 36.5812 61.3713 36.3051 61.6093 36.1199C61.8507 35.9348 62.0557 35.8422 62.2243 35.8422H62.4375C62.8111 35.8422 62.9269 36.1332 62.7847 36.7151L61.644 40.8562C61.6242 40.9521 61.5696 41 61.4804 41H60.9547C60.872 41 60.8456 40.919 60.8753 40.757L61.9416 37.2705C61.9912 37.092 62.016 36.9729 62.016 36.9134ZM65.4251 34.275C65.4251 34.275 65.2912 34.7974 65.0234 35.8422H65.559C65.6351 35.8422 65.6847 35.8587 65.7078 35.8918C65.731 35.9249 65.731 35.9827 65.7078 36.0654L65.6384 36.3282C65.5954 36.477 65.5078 36.5514 65.3755 36.5514H64.8449L63.7687 40.7768C63.729 40.9256 63.6282 41 63.4661 41H63.2727C63.1636 41 63.0859 40.9686 63.0396 40.9058C62.9967 40.843 62.9851 40.7653 63.0049 40.6727L64.0563 36.5514H63.6596C63.5901 36.5514 63.5438 36.5349 63.5207 36.5018C63.5009 36.4654 63.5025 36.401 63.5257 36.3084L63.605 36.0356C63.6414 35.9067 63.7158 35.8422 63.8282 35.8422H64.2398L64.6415 34.2651C64.6812 34.1163 64.7837 34.0419 64.949 34.0419H65.2019C65.3871 34.0419 65.4615 34.1196 65.4251 34.275ZM71.1782 33.5361C71.6179 33.5361 71.9287 33.7163 72.1106 34.0766C72.2924 34.437 72.3833 34.9545 72.3833 35.6289C72.3833 35.7976 72.3271 35.8984 72.2147 35.9315L71.8576 36.0455C71.8014 36.0621 71.7469 36.0521 71.694 36.0158C71.6411 35.9794 71.6146 35.9182 71.6146 35.8323C71.6146 34.9363 71.4692 34.4205 71.1782 34.2849C71.0426 34.2155 70.8806 34.2271 70.6922 34.3197C70.5037 34.4089 70.312 34.6271 70.1169 34.9743C69.9218 35.3182 69.8177 35.7116 69.8044 36.1546C69.7978 36.3332 69.8276 36.4704 69.8937 36.5663C69.9598 36.6589 70.0888 36.7382 70.2806 36.8043L70.6971 36.9482C71.0972 37.0837 71.3601 37.249 71.4857 37.4441C71.5981 37.6226 71.6543 37.9119 71.6543 38.312C71.6543 38.7087 71.5469 39.1353 71.3319 39.5915C71.1203 40.0478 70.8327 40.4247 70.469 40.7223C70.1053 41.0165 69.7251 41.1637 69.3283 41.1637C68.5282 41.1637 68.1282 40.514 68.1282 39.2146V39.1799C68.1282 38.922 68.1794 38.7798 68.2819 38.7534L68.6588 38.6344C68.7249 38.6079 68.7795 38.6129 68.8225 38.6492C68.8688 38.6856 68.8919 38.7451 68.8919 38.8278C68.8919 39.3601 68.9233 39.7618 68.9861 40.0329C69.049 40.3007 69.1531 40.471 69.2986 40.5437C69.4011 40.5669 69.5333 40.5437 69.6953 40.4743C69.9698 40.352 70.2161 40.099 70.4343 39.7155C70.7021 39.2526 70.831 38.7286 70.8211 38.1434C70.8178 37.9648 70.7186 37.8227 70.5236 37.7169C70.4244 37.6673 70.2839 37.6144 70.102 37.5582L69.6755 37.4243C69.4837 37.368 69.3184 37.2606 69.1796 37.1019C69.0407 36.9432 68.9713 36.7283 68.9713 36.4572C68.9713 36.1861 69.0258 35.8786 69.1349 35.5347C69.2473 35.1876 69.3961 34.8652 69.5813 34.5676C69.7697 34.2701 70.0045 34.0237 70.2855 33.8287C70.5698 33.6336 70.8674 33.5361 71.1782 33.5361ZM75.9338 35.8422H76.3752C76.4148 35.8422 76.4479 35.8687 76.4744 35.9216C76.5041 35.9711 76.5091 36.0323 76.4892 36.105C76.238 37.0573 75.9305 38.1797 75.5668 39.4725C75.2031 40.7619 74.9981 41.4959 74.9518 41.6745C74.9055 41.853 74.8096 42.0531 74.6642 42.2746C74.5154 42.506 74.3352 42.6763 74.1236 42.7854C73.998 42.8548 73.9037 42.8978 73.8409 42.9143C73.7053 42.954 73.5136 42.9011 73.2656 42.7556L72.234 42.1704C72.1448 42.1307 72.0968 42.0712 72.0902 41.9919C72.0803 41.9125 72.1001 41.8497 72.1497 41.8034L72.3035 41.5902C72.363 41.5274 72.4159 41.4893 72.4622 41.4761C72.5085 41.4629 72.5663 41.4728 72.6358 41.5059L73.7665 42.2002C73.8293 42.2332 73.8905 42.2283 73.95 42.1853C74.0128 42.1456 74.0624 42.058 74.0988 41.9225L75.0857 38.4409L74.8526 38.8873L74.2525 39.894C74.0343 40.2677 73.8145 40.5454 73.5929 40.7272C73.3714 40.9091 73.1747 41 73.0028 41H72.9432C72.8011 41 72.6821 40.9488 72.5862 40.8463C72.3514 40.5851 72.2969 40.223 72.4225 39.7601L73.459 35.9811C73.4855 35.8885 73.54 35.8422 73.6227 35.8422H74.1533C74.236 35.8422 74.2625 35.9232 74.2327 36.0852L73.2061 39.6064C73.1367 39.8808 73.1466 40.023 73.2359 40.0329C73.3383 40.0428 73.507 39.8693 73.7417 39.5122C73.9798 39.1551 74.3765 38.4707 74.932 37.459C75.4874 36.4472 75.7734 35.9331 75.79 35.9166C75.8065 35.8968 75.8214 35.8819 75.8346 35.872C75.8544 35.8521 75.8875 35.8422 75.9338 35.8422ZM78.561 35.7777C78.561 35.7777 78.6123 35.7777 78.7148 35.7777C78.9429 35.7777 79.1545 35.8653 79.3496 36.0406C79.548 36.2158 79.7083 36.434 79.8306 36.6952C79.8538 36.7382 79.8604 36.7944 79.8505 36.8638C79.8439 36.9333 79.8141 36.9845 79.7612 37.0176L79.4587 37.1912C79.4025 37.2341 79.3446 37.2523 79.2851 37.2457C79.2256 37.2391 79.1859 37.216 79.1661 37.1763C79.1462 37.1366 79.1132 37.0622 79.0669 36.9531C79.0206 36.844 78.9809 36.7647 78.9479 36.7151C78.9181 36.6622 78.8652 36.606 78.7892 36.5464C78.7164 36.4836 78.6338 36.4472 78.5412 36.4373C78.3759 36.4704 78.2172 36.5828 78.0651 36.7746C77.9163 36.9663 77.8419 37.2341 77.8419 37.578C77.8419 37.7268 77.8766 37.8309 77.9461 37.8904C78.0155 37.95 78.1428 37.9979 78.3279 38.0343L78.6156 38.0938C79.0289 38.183 79.2355 38.5252 79.2355 39.1204C79.2355 39.4708 79.1016 39.8775 78.8338 40.3404C78.7049 40.5586 78.5313 40.7421 78.3131 40.8909C78.0982 41.0397 77.8634 41.1141 77.6088 41.1141H77.5394C77.2815 41.1141 77.0501 41.0248 76.8451 40.8463C76.6434 40.6644 76.5029 40.4809 76.4235 40.2958C76.3409 40.1073 76.3392 39.9668 76.4186 39.8742L76.6417 39.6907C76.7145 39.6213 76.7905 39.5915 76.8699 39.6014C76.9492 39.6081 77.0021 39.6676 77.0286 39.78C77.0583 39.8924 77.141 40.0263 77.2765 40.1817C77.4154 40.3371 77.5427 40.4197 77.6584 40.4297C77.8634 40.3966 78.0403 40.2776 78.1891 40.0726C78.3379 39.8643 78.4123 39.6279 78.4123 39.3634C78.4123 39.0956 78.3858 38.9237 78.3329 38.8476C78.28 38.7716 78.1676 38.7137 77.9957 38.674L77.7725 38.6244C77.5047 38.5616 77.3162 38.4525 77.2071 38.2971C77.1013 38.1417 77.0484 37.9285 77.0484 37.6573C77.0484 37.3829 77.1195 37.0986 77.2617 36.8043C77.4038 36.5101 77.5939 36.2654 77.832 36.0703C78.0701 35.8753 78.3131 35.7777 78.561 35.7777ZM82.2366 34.275C82.2366 34.275 82.1027 34.7974 81.8349 35.8422H82.3705C82.4466 35.8422 82.4962 35.8587 82.5193 35.8918C82.5425 35.9249 82.5425 35.9827 82.5193 36.0654L82.4499 36.3282C82.4069 36.477 82.3193 36.5514 82.187 36.5514H81.6564L80.5802 40.7768C80.5405 40.9256 80.4397 41 80.2777 41H80.0843C79.9751 41 79.8974 40.9686 79.8512 40.9058C79.8082 40.843 79.7966 40.7653 79.8164 40.6727L80.8678 36.5514H80.4711C80.4017 36.5514 80.3554 36.5349 80.3322 36.5018C80.3124 36.4654 80.314 36.401 80.3372 36.3084L80.4165 36.0356C80.4529 35.9067 80.5273 35.8422 80.6397 35.8422H81.0513L81.4531 34.2651C81.4927 34.1163 81.5952 34.0419 81.7605 34.0419H82.0135C82.1986 34.0419 82.273 34.1196 82.2366 34.275ZM82.9055 38.9369C83.5932 38.6393 84.061 38.2359 84.309 37.7268C84.4346 37.4656 84.4975 37.2093 84.4975 36.9581C84.4975 36.7068 84.4247 36.5812 84.2792 36.5812C83.9618 36.5812 83.6874 36.8291 83.456 37.3251C83.2278 37.821 83.0444 38.3583 82.9055 38.9369ZM82.7765 39.6064C82.7269 39.8907 82.7303 40.0908 82.7865 40.2065C82.8427 40.3189 82.9319 40.39 83.0543 40.4197C83.3055 40.3272 83.613 40.0742 83.9767 39.661C84.0395 39.5981 84.1073 39.5915 84.1801 39.6411L84.3735 39.7601C84.4132 39.7833 84.4413 39.8197 84.4578 39.8693C84.4776 39.9155 84.4793 39.9536 84.4627 39.9833C84.3371 40.228 84.0991 40.4892 83.7486 40.7669C83.4014 41.0413 83.122 41.157 82.9104 41.1141C82.431 40.9983 82.15 40.7471 82.0673 40.3602C82.0045 40.0528 82.0161 39.6411 82.1021 39.1253C82.1913 38.6096 82.355 38.0772 82.593 37.5284C82.9402 36.725 83.3419 36.2175 83.7982 36.0059C84.1586 35.8372 84.4875 35.8191 84.7851 35.9513C85.086 36.0836 85.2364 36.4125 85.2364 36.9382C85.2364 37.2424 85.162 37.5416 85.0132 37.8359C84.7454 38.3616 84.2726 38.8228 83.5948 39.2196C83.3303 39.375 83.0576 39.5039 82.7765 39.6064ZM88.5492 36.9134C88.5492 36.8539 88.526 36.8242 88.4798 36.8242C88.4335 36.8242 88.3773 36.8556 88.3111 36.9184C88.2483 36.9812 88.1607 37.092 88.0483 37.2507C87.9127 37.4524 87.754 37.6987 87.5722 37.9896C87.3936 38.2773 87.1672 38.6344 86.8927 39.0609C86.3869 39.8478 86.0744 40.3487 85.9554 40.5636C85.8364 40.7752 85.7719 40.8892 85.762 40.9058C85.7521 40.919 85.7422 40.9306 85.7322 40.9405C85.7223 40.9504 85.7124 40.9587 85.7025 40.9653C85.6926 40.9719 85.6826 40.9785 85.6727 40.9851C85.6628 40.9884 85.6529 40.9917 85.643 40.995C85.6364 40.9983 85.6281 41 85.6182 41C85.4991 41 85.4 41 85.3206 41C85.1619 41 85.1057 40.9124 85.152 40.7372L86.3819 36.105C86.3852 36.0984 86.3885 36.0836 86.3918 36.0604C86.3984 36.0373 86.4018 36.0224 86.4018 36.0158C86.415 35.9695 86.4232 35.9447 86.4266 35.9414C86.4299 35.9348 86.4348 35.9249 86.4414 35.9116C86.448 35.8984 86.453 35.8901 86.4563 35.8868C86.4629 35.8835 86.4712 35.8786 86.4811 35.872C86.491 35.862 86.5009 35.8554 86.5109 35.8521C86.5307 35.8455 86.5555 35.8422 86.5853 35.8422H87.0018C87.0878 35.8422 87.1424 35.862 87.1655 35.9017C87.192 35.9414 87.1903 36.0191 87.1605 36.1348L86.4018 38.6939L87.4581 36.9482C87.6631 36.6076 87.8896 36.3381 88.1376 36.1398C88.3888 35.9414 88.5955 35.8422 88.7575 35.8422H88.9707C89.3443 35.8422 89.4601 36.1332 89.3179 36.7151L88.7922 38.6195L89.7742 36.9382C89.9825 36.5745 90.2073 36.3018 90.4486 36.1199C90.6933 35.9348 90.9016 35.8422 91.0735 35.8422H91.2868C91.5744 35.8422 91.71 35.9811 91.6935 36.2588C91.6868 36.3712 91.6654 36.5233 91.629 36.7151L90.4933 40.8562C90.4734 40.9521 90.4189 41 90.3296 41H89.8039C89.7675 41 89.7378 40.9802 89.7146 40.9405C89.6948 40.9008 89.6965 40.8396 89.7196 40.757L90.7859 37.2705C90.8355 37.092 90.8603 36.9729 90.8603 36.9134C90.8603 36.8539 90.8338 36.8242 90.7809 36.8242C90.7313 36.8242 90.652 36.8886 90.5429 37.0176C90.4338 37.1432 90.2668 37.3862 90.042 37.7466C89.8205 38.1037 89.589 38.4707 89.3477 38.8476C89.1096 39.2212 88.9443 39.4824 88.8517 39.6312C88.5541 40.1106 88.3293 40.5189 88.1772 40.8562C88.1376 40.9521 88.0797 41 88.0036 41H87.4879C87.4052 41 87.3788 40.919 87.4085 40.757L88.4748 37.2705C88.5244 37.092 88.5492 36.9729 88.5492 36.9134Z" fill="#F73A46"/>
</svg>
