<svg width="95" height="51" viewBox="0 0 95 51" fill="none" xmlns="http://www.w3.org/2000/svg">
<path d="M8.41591 22.2182L9.59941 22.1393C10.8618 22.0657 11.735 21.4818 12.2189 20.3877C12.4082 19.9564 12.5818 19.3042 12.7396 18.431C12.9079 17.5579 12.9921 16.8951 12.9921 16.4427C12.9921 16.1271 12.8922 15.8852 12.6923 15.7169C12.4924 15.538 12.2715 15.4486 12.0295 15.4486C11.9348 15.4486 11.7981 15.4486 11.6192 15.4486C11.4509 15.4381 11.2195 15.4328 10.9249 15.4328C10.6304 15.4223 10.3726 15.417 10.1517 15.417L8.41591 22.2182ZM5.71753 15.3855H4.62871C4.36571 15.3855 4.17109 15.2961 4.04486 15.1172C3.91862 14.9384 3.88706 14.728 3.95018 14.486L4.53403 12.2453C4.57611 12.0559 4.67605 11.9034 4.83385 11.7876C4.99165 11.6614 5.13893 11.5983 5.27569 11.5983H7.46911H10.2148H12.1558C13.618 11.5983 14.8015 11.9454 15.7063 12.6398C16.611 13.3341 17.0633 14.3861 17.0633 15.7958C17.0633 17.1423 16.7846 18.5836 16.227 20.1195C15.68 21.6554 15.0961 22.7179 14.4754 23.307C14.4544 23.3281 14.4281 23.3491 14.3965 23.3702C14.3755 23.3912 14.3492 23.4228 14.3176 23.4648C14.0336 23.7384 13.7653 23.9698 13.5128 24.1592C13.2604 24.338 12.8816 24.5537 12.3767 24.8061C11.8717 25.0481 11.209 25.2375 10.3884 25.3742C9.57837 25.5005 8.63157 25.5688 7.54801 25.5794L5.33881 34.2899C5.21257 34.7633 4.88645 35 4.36045 35H1.61474C1.35174 35 1.16238 34.9053 1.04666 34.716C0.930938 34.5161 0.904639 34.2794 0.967758 34.0059L5.71753 15.3855ZM23.8915 20.4824C24.3018 19.8828 24.7331 19.3042 25.1855 18.7466C25.2065 18.7151 25.2486 18.6625 25.3117 18.5888C25.3853 18.5047 25.4274 18.4521 25.4379 18.431C25.459 18.41 25.4958 18.3679 25.5484 18.3048C25.601 18.2417 25.6326 18.2048 25.6431 18.1943C25.6641 18.1733 25.6957 18.1417 25.7378 18.0996C25.7904 18.047 25.8272 18.0102 25.8482 17.9892C25.8798 17.9576 25.9166 17.9261 25.9587 17.8945C26.0008 17.8524 26.0428 17.8209 26.0849 17.7998C26.127 17.7683 26.1691 17.7367 26.2112 17.7051C26.4531 17.5368 26.9055 17.4527 27.5682 17.4527H29.3514C29.6249 17.4527 29.8248 17.5105 29.951 17.6262C30.0878 17.7314 30.1036 17.9155 29.9984 18.1785C29.9037 18.431 29.6565 18.7361 29.2567 19.0938C28.8254 19.483 28.1574 20.2405 27.2526 21.3661C26.6951 22.0815 26.4163 22.5759 26.4163 22.8494C26.4163 23.407 26.6846 23.933 27.2211 24.4274C27.2947 24.5116 27.321 24.5957 27.3 24.6799C27.2789 24.7641 27.2 24.843 27.0633 24.9166C26.937 24.9902 26.7845 25.0323 26.6057 25.0428L24.3018 25.248C23.9336 25.2795 23.6443 25.2112 23.4339 25.0428C23.3077 24.9482 23.1288 24.6904 22.8974 24.2696L20.2621 34.2899C20.1359 34.7633 19.815 35 19.2995 35H16.6801C16.0909 35 15.8542 34.7528 15.97 34.2583L20.1674 18.2574C20.2937 17.784 20.6198 17.5473 21.1458 17.5473H23.7653C24.3544 17.5473 24.5911 17.7946 24.4754 18.289L23.8915 20.4824ZM33.8034 29.761C34.14 29.1193 34.4398 28.4145 34.7028 27.6465C34.9658 26.8786 35.1394 26.2789 35.2236 25.8476C35.3393 25.4689 35.4445 24.9271 35.5392 24.2223C35.6339 23.5174 35.6339 22.8126 35.5392 22.1078C35.4445 21.3924 35.1973 21.0347 34.7975 21.0347C34.3557 21.0347 33.9664 21.2609 33.6298 21.7133C33.2932 22.1656 32.9513 22.8336 32.6041 23.7173C32.5936 23.7384 32.5357 23.8856 32.4305 24.1592C32.3253 24.4327 32.2254 24.6904 32.1307 24.9324C32.0465 25.1743 31.9361 25.5005 31.7993 25.9107C31.6731 26.321 31.5626 26.705 31.4679 27.0627C31.3838 27.4098 31.3101 27.7938 31.247 28.2146C31.1839 28.6354 31.1523 29.0141 31.1523 29.3508C31.1523 30.0661 31.1997 30.5658 31.2944 30.8499C31.3996 31.1339 31.6415 31.3127 32.0202 31.3864C32.3884 31.3338 32.6988 31.197 32.9513 30.9761C33.2037 30.7552 33.4878 30.3502 33.8034 29.761ZM29.1167 21.7133C29.6743 20.4403 30.458 19.3831 31.4679 18.5415C32.4884 17.6894 33.6982 17.2633 35.0973 17.2633C35.9074 17.2633 36.6122 17.4158 37.2119 17.7209C37.822 18.026 38.3322 18.5941 38.7425 19.4252C38.9213 19.7618 39.0528 20.1773 39.137 20.6718C39.2317 21.1557 39.279 21.5397 39.279 21.8237C39.2895 22.1078 39.2948 22.5917 39.2948 23.2755C39.2948 24.6115 39.0844 25.9896 38.6636 27.4098C38.2428 28.83 37.68 30.1345 36.9752 31.3233C36.2493 32.5331 35.4392 33.4904 34.545 34.1952C33.6614 34.9001 32.7461 35.2525 31.7993 35.2525C31.105 35.2525 30.5211 35.1736 30.0477 35.0158C29.5743 34.8685 29.0904 34.5319 28.596 34.0059C28.1121 33.4904 27.7544 32.8118 27.5229 31.9702C27.2915 31.1181 27.1758 30.245 27.1758 29.3508C27.1758 26.9943 27.8228 24.4485 29.1167 21.7133ZM51.2708 25.8476C51.2708 25.8476 49.3562 25.8476 45.5269 25.8476L43.3808 34.2899C43.2546 34.7633 42.9284 35 42.4024 35H39.6567C39.3937 35 39.2044 34.9053 39.0887 34.716C38.9729 34.5161 38.9466 34.2794 39.0098 34.0059L43.7437 15.4486H42.6076C42.2815 15.4486 42.0711 15.3592 41.9764 15.1803C41.8817 15.0015 41.887 14.7017 41.9922 14.2809L42.5129 12.2453C42.576 11.9612 42.6444 11.7824 42.718 11.7087C42.7917 11.6351 42.939 11.5983 43.1599 11.5983C43.1599 11.5983 43.9436 11.5983 45.5111 11.5983H48.2568H55.1369C55.7891 11.5983 56.0364 11.9454 55.8786 12.6398L55.4683 14.5491C55.4262 14.7911 55.2894 15.0015 55.058 15.1803C54.8371 15.3592 54.6056 15.4486 54.3637 15.4486H48.1779L46.5052 22.0131H52.044C52.6437 22.0131 52.8698 22.355 52.7226 23.0388L52.2965 24.9482C52.2544 25.1901 52.1282 25.4005 51.9178 25.5794C51.7179 25.7582 51.5022 25.8476 51.2708 25.8476ZM63.1016 11.2196C63.1016 11.2196 61.1449 18.9097 57.2314 34.2899C57.1052 34.7633 56.7791 35 56.2531 35H53.7756C53.4285 35 53.1865 34.9001 53.0497 34.7002C52.9025 34.5003 52.8604 34.2531 52.9235 33.9585L58.7463 11.188C58.8726 10.7146 59.1934 10.4779 59.7089 10.4779H62.3915C62.9806 10.4779 63.2173 10.7251 63.1016 11.2196ZM67.7096 29.761C68.0463 29.1193 68.3461 28.4145 68.6091 27.6465C68.8721 26.8786 69.0457 26.2789 69.1298 25.8476C69.2455 25.4689 69.3507 24.9271 69.4454 24.2223C69.5401 23.5174 69.5401 22.8126 69.4454 22.1078C69.3507 21.3924 69.1035 21.0347 68.7038 21.0347C68.2619 21.0347 67.8727 21.2609 67.536 21.7133C67.1994 22.1656 66.8575 22.8336 66.5103 23.7173C66.4998 23.7384 66.442 23.8856 66.3368 24.1592C66.2316 24.4327 66.1316 24.6904 66.0369 24.9324C65.9528 25.1743 65.8423 25.5005 65.7056 25.9107C65.5793 26.321 65.4689 26.705 65.3742 27.0627C65.29 27.4098 65.2164 27.7938 65.1533 28.2146C65.0901 28.6354 65.0586 29.0141 65.0586 29.3508C65.0586 30.0661 65.1059 30.5658 65.2006 30.8499C65.3058 31.1339 65.5478 31.3127 65.9265 31.3864C66.2947 31.3338 66.605 31.197 66.8575 30.9761C67.11 30.7552 67.394 30.3502 67.7096 29.761ZM63.023 21.7133C63.5805 20.4403 64.3643 19.3831 65.3742 18.5415C66.3946 17.6894 67.6044 17.2633 69.0036 17.2633C69.8136 17.2633 70.5185 17.4158 71.1181 17.7209C71.7283 18.026 72.2385 18.5941 72.6488 19.4252C72.8276 19.7618 72.9591 20.1773 73.0433 20.6718C73.1379 21.1557 73.1853 21.5397 73.1853 21.8237C73.1958 22.1078 73.2011 22.5917 73.2011 23.2755C73.2011 24.6115 72.9907 25.9896 72.5699 27.4098C72.1491 28.83 71.5862 30.1345 70.8814 31.3233C70.1555 32.5331 69.3455 33.4904 68.4513 34.1952C67.5676 34.9001 66.6524 35.2525 65.7056 35.2525C65.0112 35.2525 64.4274 35.1736 63.954 35.0158C63.4806 34.8685 62.9967 34.5319 62.5022 34.0059C62.0183 33.4904 61.6606 32.8118 61.4292 31.9702C61.1978 31.1181 61.082 30.245 61.082 29.3508C61.082 26.9943 61.729 24.4485 63.023 21.7133ZM79.3096 29.1614C80.835 25.5846 81.9817 22.113 82.7497 18.7466C82.7392 18.694 82.7339 18.6151 82.7339 18.5099C82.7339 18.3942 82.7286 18.31 82.7181 18.2574C82.6866 18.0155 82.7444 17.8366 82.8917 17.7209C83.0495 17.6052 83.2494 17.5473 83.4913 17.5473H85.7794C86.0003 17.5473 86.1634 17.6052 86.2686 17.7209C86.3843 17.8366 86.458 18.026 86.4895 18.289C86.7946 22.0867 86.8419 25.6846 86.6315 29.0825C88.2306 25.2848 89.4141 21.6028 90.182 18.0365C90.2662 17.5842 90.545 17.379 91.0184 17.4211L93.4485 17.6105C93.6905 17.642 93.8693 17.7314 93.985 17.8787C94.1007 18.026 94.1218 18.2048 94.0481 18.4152C92.0704 24.8219 90.0558 29.7347 88.0044 33.1537C87.6362 33.7744 87.3048 34.2373 87.0103 34.5424C86.7262 34.8475 86.4369 35 86.1424 35L83.8385 34.8738C83.5545 34.8527 83.3072 34.6634 83.0968 34.3057C82.8864 33.9375 82.8023 33.5009 82.8444 32.9959C83.0022 31.2391 83.0811 29.2824 83.0811 27.1258C82.1343 29.7242 81.2243 31.7335 80.3511 33.1537C79.9829 33.7744 79.6515 34.2373 79.357 34.5424C79.0729 34.8475 78.7889 35 78.5049 35L76.2168 34.8738C75.9327 34.8527 75.6802 34.6634 75.4593 34.3057C75.2489 33.9375 75.1648 33.5009 75.2068 32.9959C75.5856 28.7143 75.5435 23.8015 75.0806 18.2574C75.049 18.0155 75.1069 17.8366 75.2542 17.7209C75.412 17.6052 75.6119 17.5473 75.8538 17.5473H78.4417C78.6837 17.5473 78.8573 17.6052 78.9625 17.7209C79.0782 17.8366 79.1518 18.026 79.1834 18.289C79.478 22.0446 79.52 25.6688 79.3096 29.1614Z" fill="white"/>
</svg>
